<?xml version="1.0" encoding="UTF-8" standalone="no"?>
<!-- Created with Inkscape (http://www.inkscape.org/) -->

<svg
   xmlns:dc="http://purl.org/dc/elements/1.1/"
   xmlns:cc="http://creativecommons.org/ns#"
   xmlns:rdf="http://www.w3.org/1999/02/22-rdf-syntax-ns#"
   xmlns:svg="http://www.w3.org/2000/svg"
   xmlns="http://www.w3.org/2000/svg"
   xmlns:sodipodi="http://sodipodi.sourceforge.net/DTD/sodipodi-0.dtd"
   xmlns:inkscape="http://www.inkscape.org/namespaces/inkscape"
   width="210mm"
   height="297mm"
   id="svg2"
   version="1.1"
   inkscape:version="0.48.1 r9760"
   sodipodi:docname="Nuevo documento 1">
  <defs
     id="defs4" />
  <sodipodi:namedview
     id="base"
     pagecolor="#ffffff"
     bordercolor="#666666"
     borderopacity="1.0"
     inkscape:pageopacity="0.0"
     inkscape:pageshadow="2"
     inkscape:zoom="0.70710678"
     inkscape:cx="222.11983"
     inkscape:cy="547.17448"
     inkscape:document-units="px"
     inkscape:current-layer="layer1"
     showgrid="false"
     inkscape:snap-global="true"
     inkscape:window-width="1280"
     inkscape:window-height="958"
     inkscape:window-x="-2"
     inkscape:window-y="8"
     inkscape:window-maximized="1" />
  <metadata
     id="metadata7">
    <rdf:RDF>
      <cc:Work
         rdf:about="">
        <dc:format>image/svg+xml</dc:format>
        <dc:type
           rdf:resource="http://purl.org/dc/dcmitype/StillImage" />
        <dc:title></dc:title>
      </cc:Work>
    </rdf:RDF>
  </metadata>
  <g
     inkscape:label="Capa 1"
     inkscape:groupmode="layer"
     id="layer1">
    <g
       id="g3291"
       transform="translate(894.28571,188.57143)" />
    <path
       style="fill:#ff8080;fill-opacity:1;stroke:#ff8080;stroke-width:2.14285707;stroke-miterlimit:4;stroke-dasharray:none"
       d=""
       id="path4129"
       inkscape:connector-curvature="0" />
    <path
       style="fill:#ff8080;fill-opacity:1;stroke:#ff8080;stroke-width:2.14285707;stroke-miterlimit:4;stroke-dasharray:none"
       d=""
       id="path4131"
       inkscape:connector-curvature="0" />
    <g
       id="g4157">
      <g
         transform="translate(740,2.9999998)"
         id="g4141">
        <path
           inkscape:connector-curvature="0"
           id="path3315"
           d="m -382.93099,754.66922 c -0.44271,-1.15369 -2.35394,-1.5 -8.27824,-1.5 -5.50751,0 -8.18401,-0.43563 -9.39172,-1.52859 -1.86351,-1.68645 -16.47232,-2.2188 -25.21034,-0.91867 -3.41566,0.50821 -5.20506,0.32118 -6.39778,-0.66869 -1.10436,-0.91653 -3.57223,-1.26385 -7.40963,-1.04281 -5.44887,0.31388 -5.97463,0.1319 -9.92194,-3.43426 -2.80936,-2.53809 -4.01297,-4.35922 -3.69207,-5.58634 0.26186,-1.00135 0.0682,-1.82064 -0.43027,-1.82064 -0.49851,0 -0.90638,0.65917 -0.90638,1.46482 0,2.27939 -3.35366,3.53518 -9.44087,3.53518 -4.69752,0 -5.91362,-0.39249 -7.74608,-2.5 -1.28954,-1.4831 -3.24454,-2.5 -4.80629,-2.5 -1.63873,0 -3.74139,-1.16358 -5.56967,-3.08217 -2.47114,-2.5932 -3.47327,-2.99644 -6.31691,-2.5418 -2.99444,0.47875 -3.86504,0.0411 -7.63519,-3.83808 -3.88911,-4.0016 -4.58798,-4.33506 -8.12017,-3.87448 -3.01917,0.39368 -4.35714,0.0395 -6.11482,-1.61871 -1.2375,-1.16747 -2.25,-2.9354 -2.25,-3.92873 0,-2.97009 -3.41962,-5.19004 -8.45134,-5.48645 -4.06522,-0.23948 -5.17987,-0.8224 -8.36925,-4.37687 -3.52275,-3.92601 -7.79493,-6.40237 -13.17941,-7.63943 -1.375,-0.3159 -8.8,-6.64614 -16.5,-14.06721 -7.7,-7.42107 -14.38125,-13.50482 -14.84723,-13.51946 -1.23543,-0.0388 -14.65277,-13.17549 -14.65277,-14.34628 0,-0.54535 -1.05365,-2.38402 -2.34145,-4.08594 -1.2878,-1.70191 -2.62795,-4.25851 -2.97812,-5.68131 -0.35017,-1.42281 -2.22152,-4.26735 -4.15855,-6.32121 -2.18381,-2.31551 -3.53396,-4.75203 -3.55368,-6.41307 -0.0175,-1.47334 -0.69249,-3.55231 -1.5,-4.61993 -0.80751,-1.06762 -1.4682,-2.80266 -1.4682,-3.85564 0,-1.05299 -1.125,-3.2515 -2.5,-4.8856 -2.08141,-2.47362 -2.5,-4.01456 -2.5,-9.20323 0,-3.9316 0.54197,-6.94869 1.4682,-8.17327 1.12282,-1.48451 1.47568,-5.20047 1.5,-15.79677 0.0309,-13.48219 0.10271,-13.93991 2.66242,-16.98196 2.56252,-3.04539 2.61765,-3.39991 2.12967,-13.69538 -0.44053,-9.29425 -0.27536,-10.84766 1.36938,-12.87882 1.02868,-1.27037 1.87033,-2.84664 1.87033,-3.50282 0,-0.65617 1.53403,-2.67989 3.40896,-4.49714 1.91578,-1.85685 3.67943,-4.74585 4.02646,-6.59568 0.33963,-1.81038 1.31732,-3.87239 2.17264,-4.58224 0.85533,-0.70986 2.81922,-3.79258 4.3642,-6.85049 1.54498,-3.05791 3.80433,-6.45877 5.02078,-7.55747 2.70415,-2.44241 4.74648,-6.28335 6.58306,-12.38054 1.97085,-6.54295 5.01571,-11.12182 7.39578,-11.12182 1.31252,0 2.46883,-1.11852 3.3598,-3.25 0.74718,-1.7875 2.10322,-3.8676 3.01342,-4.62244 0.91019,-0.75485 1.6549,-2.20349 1.6549,-3.21921 0,-2.63717 3.97294,-9.90835 5.41388,-9.90835 1.49673,0 5.90197,-4.632 7.60837,-8 1.46329,-2.88817 5.29937,-7.67462 12.72775,-15.88098 2.8875,-3.18992 5.25,-6.56162 5.25,-7.49268 0,-3.48137 5.04042,-11.32093 11.01135,-17.12634 3.39408,-3.3 6.48215,-6.80021 6.86237,-7.77825 0.64585,-1.66127 6.36426,-8.55259 18.87628,-22.74802 3.2202,-3.65346 5.25,-6.88419 5.25,-8.35616 0,-1.32163 -1.77617,-4.54922 -3.95342,-7.18399 -2.17438,-2.6313 -4.08688,-5.7178 -4.25,-6.85888 -0.50629,-3.54168 -4.55207,-3.20809 -8.66703,0.71462 -1.99625,1.90299 -4.94452,3.76941 -6.55171,4.1476 -3.70472,0.87175 -9.57784,7.20777 -9.57784,10.33273 0,2.77018 -9.8294,13.58885 -14.5,15.95933 -1.65,0.83743 -5.77355,4.166 -9.16345,7.39681 -3.50902,3.34436 -7.0679,5.87421 -8.26356,5.87421 -3.05769,0 -5.85992,1.8109 -12.32299,7.96356 -3.75186,3.57167 -5.75,6.27435 -5.75,7.77748 0,3.37626 -7.59513,11.25337 -10.87736,11.2812 -1.44245,0.0122 -3.74764,0.90222 -5.12264,1.97776 -1.375,1.07554 -2.88504,1.96553 -3.35564,1.97776 -0.47061,0.0122 -2.19263,1.14724 -3.82673,2.52224 -2.23206,1.87816 -4.12166,2.5 -7.59675,2.5 -3.79183,0 -5.18728,0.54433 -7.74116,3.01965 -6.75322,6.54549 -20.93518,9.07314 -26.07952,4.64816 l -2.71133,-2.33218 -0.41474,-17.41782 c -0.22811,-9.57979 -0.83311,-17.56781 -1.34444,-17.75114 -1.30011,-0.46615 -1.23053,-45.16667 0.0703,-45.16667 0.55,0 1,-1.65555 1,-3.679 0,-3.67268 0.36431,-5.27842 3.39304,-14.95521 0.88383,-2.82382 1.62291,-6.64882 1.6424,-8.5 0.0195,-1.85118 0.67854,-4.49079 1.46456,-5.86579 0.78602,-1.375 1.44508,-3.53031 1.46456,-4.78958 0.0211,-1.36587 2.55695,-5.10032 6.28544,-9.25648 3.4375,-3.83179 8.2362,-9.22475 10.66378,-11.98435 2.42759,-2.7596 5.40844,-5.56918 6.62412,-6.24352 1.21568,-0.67434 3.72948,-2.06395 5.58622,-3.08802 1.85673,-1.02407 4.84566,-3.25691 6.64206,-4.96185 2.59376,-2.46171 4.05931,-3.06826 7.11869,-2.94626 3.07194,0.1225 4.42355,-0.44242 6.67091,-2.78816 2.15353,-2.2478 3.7172,-2.94178 6.62843,-2.94178 2.98089,0 4.69093,-0.79584 7.8579,-3.65701 3.57738,-3.23194 4.60826,-3.63717 8.86912,-3.48636 3.25333,0.11515 5.22978,-0.32161 6.07746,-1.34299 0.69091,-0.8325 2.56555,-1.51364 4.16587,-1.51364 1.60032,0 4.52518,-0.675 6.49968,-1.5 1.97451,-0.825 6.23505,-1.5 9.46788,-1.5 3.25192,0 5.87788,-0.44675 5.87788,-1 0,-0.62404 5.87992,-1 15.63976,-1 13.15175,0 15.825,0.25335 16.80424,1.59254 0.64047,0.87589 3.30976,1.99331 5.93174,2.48315 4.78482,0.8939 8.52857,3.13979 13.46868,8.07989 5.75676,5.75676 7.15558,8.45492 7.15558,13.80224 0,5.51929 1.53009,9.40196 4.91085,12.46151 2.64557,2.3942 5.43671,8.28319 7.64507,16.13023 0.93637,3.32726 2.75782,7.27644 4.04766,8.77596 2.29868,2.67238 2.46953,2.70623 8.62079,1.708 3.4516,-0.56012 10.01771,-1.02181 14.59137,-1.02596 4.57366,-0.004 9.1362,-0.44665 10.13897,-0.98332 1.07036,-0.57284 13.74081,-0.95727 30.68426,-0.93098 15.87357,0.0246 34.55133,-0.0197 41.50613,-0.0985 7.06779,-0.0801 12.90381,0.27533 13.23164,0.80577 0.32259,0.52197 3.40729,0.92548 6.85489,0.89671 7.58264,-0.0633 9.68555,0.96799 13.87801,6.80587 3.43411,4.78192 4.90209,5.27677 8.89036,2.99687 4.65312,-2.65997 9.70631,-1.87616 16.11738,2.5 l 5.86,4 13.26131,0.0741 c 19.01494,0.10628 21.76584,0.65531 24.24164,4.83819 1.1108,1.87677 3.4102,4.80177 5.1098,6.5 1.6996,1.69822 3.37,3.86736 3.712,4.82029 0.4688,1.30645 1.3335,1.59026 3.5155,1.15386 2.3137,-0.46273 3.6426,0.0787 6.6292,2.70101 3.1717,2.78477 4.0215,3.10113 5.6307,2.09614 1.0425,-0.65099 4.1174,-1.18362 6.8332,-1.18362 l 4.9379,0 17.2991,-17.03038 c 15.7711,-15.52611 17.5437,-16.97665 20.0688,-16.42205 1.9673,0.43208 3.5352,0.006 5.4115,-1.46961 4.0958,-3.22176 8.6557,-2.71986 13.2848,1.46225 3.3012,2.9824 4.3652,3.42242 6.7529,2.79264 4.022,-1.06085 5.3766,-0.60536 9.3343,3.13867 1.925,1.82111 4.52,3.61773 5.7667,3.9925 1.2468,0.37477 3.1155,2.33618 4.1527,4.35869 2.3571,4.59597 5.7615,7.72114 9.3306,8.56511 1.8892,0.44674 2.75,1.28907 2.75,2.6911 0,2.35427 9.4314,12.74671 12.7,13.99402 1.2744,0.48633 3.2687,3.0986 4.7402,6.20908 1.6321,3.45006 3.5267,5.83071 5.3,6.65965 1.5179,0.70956 3.4348,1.62377 4.2598,2.03158 1.2069,0.59658 1.5542,3.5049 1.7774,14.88411 0.163,8.30538 0.6789,14.14264 1.25,14.14264 1.6927,0 1.0548,3.07502 -1.2774,6.15766 -1.2375,1.63569 -3.9375,4.90718 -6,7.26999 -2.0625,2.36281 -3.75,4.85573 -3.75,5.53982 0,0.6841 1.125,2.5808 2.5,4.2149 1.375,1.63409 2.5,3.86658 2.5,4.96108 0,1.0945 -1.125,3.46494 -2.5,5.26766 -1.375,1.80272 -2.5,4.25775 -2.5,5.45562 0,1.19788 -1.8,4.13073 -4,6.51744 -2.9269,3.17526 -4,5.19682 -4,7.53503 0,2.18457 -1.4791,5.31158 -4.6751,9.88408 -2.8185,4.03242 -5.0035,8.44689 -5.5022,11.11638 -1.1585,6.20121 -3.0396,7.99507 -7.7248,7.36665 -3.2428,-0.43494 -4.0858,-0.1172 -5.9386,2.23825 -1.1876,1.50984 -2.1593,3.54716 -2.1593,4.52739 0,0.98023 -0.884,3.84455 -1.9645,6.36514 l -1.9645,4.58291 -5.8444,0 c -3.5907,0 -6.5929,-0.56617 -7.7855,-1.4682 -1.0676,-0.8075 -2.938,-1.4825 -4.1563,-1.5 -1.2184,-0.0175 -3.8273,-1.4472 -5.7976,-3.17713 -3.075,-2.6999 -3.4899,-3.56616 -2.9296,-6.117 0.5855,-2.66583 0,-3.6286 -5.6736,-9.35467 -4.4363,-4.4761 -7.0818,-6.38583 -8.8551,-6.39247 -2.0381,-0.008 -2.9171,-0.8926 -4.5289,-4.55997 -1.1,-2.50278 -3.0125,-5.50196 -4.25,-6.66485 -1.2375,-1.16288 -2.25,-2.67637 -2.25,-3.3633 0,-0.68693 -1.125,-2.58595 -2.5,-4.22004 -1.375,-1.6341 -2.5,-3.89125 -2.5,-5.01591 0,-1.12465 -1.8,-4.12456 -4,-6.66646 l -4,-4.62164 0,-17.27251 c 0,-9.49989 -0.2745,-17.54695 -0.6099,-17.88238 -0.3354,-0.33542 -2.3515,0.48958 -4.4801,1.83334 -2.1287,1.34375 -4.2658,2.44319 -4.7492,2.44319 -0.4834,0 -1.1202,3.86788 -1.4152,8.59528 -0.7826,12.54513 -3.8022,14.23672 -5.2703,2.95254 -1.3408,-10.30488 -3.6455,-17.53649 -6.239,-19.57655 -5.8724,-4.61924 -7.0075,-0.29019 -2.2363,8.52873 1.65,3.04979 3.0159,6.77244 3.0354,8.27254 0.019,1.5001 0.6785,3.85246 1.4646,5.22746 0.786,1.375 1.445,3.57188 1.4645,4.88197 0.02,1.31008 0.8735,3.78508 1.8978,5.5 1.0243,1.71491 2.686,6.38053 3.6928,10.36803 1.0067,3.9875 2.2455,7.25 2.7529,7.25 1.0666,0 0.096,-9.6232 -1.5384,-15.25645 -1.2355,-4.2576 -0.7831,-5.19999 2.0626,-4.29679 3.0751,0.976 3.4226,2.99448 3.2259,18.74061 -0.1681,13.45986 -0.017,14.85344 1.8035,16.67431 1.0929,1.09281 2.471,2.89141 3.0627,3.99688 1.9997,3.73652 0.9286,24.59243 -1.2261,23.87418 -0.561,-0.18699 -1.6407,-2.46872 -2.3993,-5.07052 -0.7587,-2.6018 -1.7452,-4.50442 -2.1924,-4.22805 -0.4472,0.27637 -1.0714,3.91836 -1.3872,8.09332 -0.5963,7.88491 0.3415,12.56364 3.1723,15.82631 1.4088,1.62375 1.6447,6.79844 1.9013,41.69884 l 0.2929,39.84503 -2.5943,1.69982 c -1.9183,1.25692 -2.8867,1.40733 -3.7168,0.57728 -1.2359,-1.23597 -1.3874,-6.24997 -0.3089,-10.22826 0.5792,-2.13652 0.2462,-2.75668 -2.0389,-3.79787 -1.5022,-0.68441 -3.0655,-0.88535 -3.4742,-0.44651 -0.4086,0.43883 -0.9799,3.72287 -1.2693,7.29787 -0.8172,10.09106 -3.4661,29.83939 -4.1513,30.94794 -0.3387,0.54807 -1.2575,4.4965 -2.0417,8.77428 -0.7842,4.27778 -1.7078,8.75175 -2.0524,9.94216 -0.7343,2.53675 2.4893,4.81086 5.4758,3.86298 3.7359,-1.18575 4.3803,9.30948 0.747,12.16744 -1.2865,1.01197 -2.7785,3.18213 -3.3157,4.82258 -0.686,2.09532 -1.9233,3.2671 -4.1589,3.93887 -1.7788,0.5345 -3.4692,1.85766 -3.8326,3 -0.9086,2.85568 -0.5153,10.98823 0.6838,14.14227 0.8374,2.20252 0.6291,3.00191 -1.2677,4.86544 -1.2484,1.22644 -4.2947,4.55091 -6.7697,7.38771 -2.475,2.8368 -6.2874,6.84318 -8.4718,8.90308 -2.1845,2.05989 -6.4112,6.33275 -9.3927,9.49525 -2.98146,3.1625 -5.95844,5.75 -6.6155,5.75 -0.65707,0 -3.09265,2.025 -5.4124,4.5 -4.15982,4.4382 -4.30691,4.5 -10.71044,4.5 -5.72924,0 -6.77975,0.30975 -8.934,2.63422 -2.39237,2.58141 -2.64213,2.62456 -12.45595,2.15199 -7.64664,-0.36821 -10.27916,-0.1635 -11.13338,0.86578 -0.86204,1.03869 -5.22094,1.34801 -18.9963,1.34801 -15.2245,0 -17.87756,0.2226 -17.87756,1.5 0,1.28547 -2.98811,1.5 -20.89301,1.5 -17.64908,0 -20.98238,-0.2329 -21.46862,-1.5 z m -35.63837,-8.46482 c 0,-1.63434 -3.47044,-2.98397 -5.05388,-1.9654 -1.25492,0.80723 -1.2478,1.06041 0.0539,1.91491 1.93075,1.26745 5,1.29845 5,0.0505 z m -16,-3.83518 c 0,-1.41318 -2.34521,-3.2 -4.2,-3.2 -2.52887,0 -2.24294,1.88641 0.45,2.96884 2.89972,1.16554 3.75,1.21796 3.75,0.23116 z m -26.82874,-6.85499 c 3.23194,-2.92486 1.75901,-5.34501 -3.25305,-5.34501 -1.05501,0 -1.91821,-0.38123 -1.91821,-0.84719 0,-0.46595 -0.96068,-1.27585 -2.13484,-1.79978 -1.17417,-0.52392 -2.63667,-2.4777 -3.25,-4.34172 -1.01368,-3.08073 -1.97623,-3.73216 -10.57781,-7.15891 -5.20446,-2.07338 -12.14806,-5.17743 -15.43022,-6.8979 l -5.96757,-3.12811 -1.79754,2.3368 c -2.68245,3.48718 -2.25738,5.25449 2.15754,8.97045 2.19977,1.8515 5.75041,4.83648 7.89032,6.63329 2.57125,2.15898 8.23548,4.79909 16.70185,7.78474 7.0461,2.4848 13.02046,4.72718 13.27635,4.98307 0.89359,0.8936 2.48833,0.45269 4.30318,-1.18973 z m 220.62876,-16.54501 c 0.66,-0.66 1.2,-2.44588 1.2,-3.96862 0,-3.57289 -2.4562,-2.83014 -3.8485,1.16378 -1.3226,3.79413 0.1255,5.32779 2.6485,2.80484 z m 5.5962,-8.39024 c 0.3357,-0.87464 0.3437,-2.02149 0.018,-2.54856 -0.7653,-1.23831 -3.4142,0.90399 -3.4142,2.76124 0,1.90291 2.648,1.73708 3.3962,-0.21268 z m -272.04795,-7.74562 c -1.01655,-1.35995 -4.18,-3.62074 -7.02989,-5.02399 -3.74957,-1.84623 -6.08041,-3.92425 -8.43369,-7.51893 -1.78863,-2.73216 -4.29842,-5.44433 -5.57731,-6.02703 -1.27889,-0.5827 -4.32596,-4.15224 -6.77127,-7.9323 -2.44532,-3.78006 -5.53408,-7.58576 -6.86391,-8.45711 -1.7899,-1.17278 -2.29459,-2.22929 -1.94315,-4.06773 0.79363,-4.15163 -2.62238,-8.50321 -9.22905,-11.75665 -3.3,-1.62509 -7.99163,-4.75685 -10.42585,-6.95947 -4.12504,-3.73259 -4.43885,-4.37575 -4.61713,-9.46285 -0.17685,-5.04654 -0.022,-5.45808 2.05341,-5.45808 1.23457,0 2.7759,0.64009 3.42518,1.42241 0.64927,0.78233 2.45316,1.86607 4.00865,2.40831 2.30066,0.80202 3.44054,0.58334 6.11151,-1.17241 5.93302,-3.90006 7.42014,-4.62883 9.44423,-4.62826 3.60751,0.001 4.81233,1.48527 4.14836,5.11044 -0.73758,4.02713 -0.21013,4.96405 4.35164,7.72993 l 3.5,2.1221 -5.08333,0.004 c -2.79584,0.002 -5.37943,0.29984 -5.74133,0.66173 -1.52474,1.52448 1.85017,3.34175 6.20656,3.34175 3.554,0 4.92872,0.46711 5.88603,2 0.78725,1.26059 2.33202,2 4.17841,2 2.31931,0 3.59154,0.92203 6.10881,4.42726 3.7175,5.17653 7.74222,7.28674 10.78838,5.65648 4.98385,-2.66727 12.33115,-0.56756 18.47767,5.28057 2.10166,1.99963 4.57666,3.63738 5.5,3.63945 2.15344,0.005 11.91508,4.85704 15.59547,7.75203 2.24195,1.76352 3.62049,2.102 6.61247,1.62356 3.12576,-0.49983 3.96597,-0.257 4.85433,1.40292 1.68647,3.1512 12.11653,5.92106 12.11653,3.21773 0,-0.55 0.675,-1 1.5,-1 2.13729,0 1.86732,0.93024 -1.05629,3.63975 -3.08001,2.85446 -2.4381,4.35759 1.86531,4.36789 1.75504,0.004 6.11598,0.9044 9.69098,2.00044 10.93919,3.35379 25.40746,5.1236 35.79337,4.37837 10.48873,-0.75261 13.63244,-2.36642 14.99835,-7.69936 0.67752,-2.64529 1.57211,-3.42361 5.26229,-4.57841 5.59956,-1.75231 5.5888,-1.7409 3.65712,-3.87539 -2.25064,-2.48692 -0.93613,-3.95399 4.23372,-4.72506 3.86732,-0.57681 4.67169,-0.36483 6.31951,1.66542 l 1.88815,2.32635 -0.43759,-2.75 c -0.33629,-2.11345 -0.0351,-2.75 1.30131,-2.75 0.95638,0 2.29908,0.675 2.98377,1.5 2.10809,2.54009 2.86496,1.66994 1.73888,-1.99915 -1.27039,-4.13931 -1.08081,-4.40883 3.64002,-5.17491 3.08473,-0.50058 3.93066,-0.20212 5.66069,1.99726 2.41817,3.07421 4.44341,2.59862 5.82625,-1.36819 1.02668,-2.94515 1.86603,-3.32332 9.71407,-4.37665 2.7486,-0.36891 4.70644,-0.0735 6,0.90522 3.98553,3.0156 6.05123,1.54803 9.47788,-6.73358 0.92051,-2.22471 1.77645,-2.75 4.48102,-2.75 1.83873,0 3.62127,0.45 3.96119,1 1.09754,1.77586 2.27996,1.06998 3.35016,-2 0.57519,-1.65 1.45206,-3 1.9486,-3 2.47419,0 7.3606,2.42925 8.25753,4.10518 3.59021,6.70837 3.46963,-4.35392 -0.12411,-11.38597 -1.0627,-2.07944 -1.93218,-4.3728 -1.93218,-5.09637 0,-2.20278 -3.11388,-7.85673 -7.16158,-13.00347 -4.34051,-5.51904 -4.44059,-5.87434 -2.26699,-8.04794 2.44848,-2.44848 5.08126,-1.88 9.41158,2.03219 3.86521,3.49198 10.01699,12.90834 10.01699,15.33273 0,1.91469 4.16908,11.06365 5.04158,11.06365 1.47354,0 4.95811,-6.71121 4.99386,-9.61803 0.0195,-1.58509 0.67854,-4.00697 1.46456,-5.38197 2.0044,-3.50634 1.83496,-6.38689 -0.5,-8.5 -2.57981,-2.3347 -2.54241,-4.12489 0.10062,-4.81606 1.15533,-0.30213 1.84475,-0.96332 1.53203,-1.46931 -0.31272,-0.50599 -0.0205,-1.63257 0.64938,-2.5035 0.88355,-1.14873 3.54667,-1.70889 9.69906,-2.04012 9.564,-0.5149 11.85293,-1.98696 8.62891,-5.54946 -2.14076,-2.36551 -1.38136,-4.12155 1.78235,-4.12155 3.51672,0 3.7687,-1.0199 1.05018,-4.25067 -2.68279,-3.18831 -2.19169,-5.05939 1.64778,-6.27799 2.12847,-0.67555 2.52796,-3.45307 0.75207,-5.22896 -0.87682,-0.87682 -0.86553,-1.50956 0.0466,-2.60858 0.81121,-0.97745 0.98086,-3.13452 0.51984,-6.60987 -0.43369,-3.26928 -0.22397,-6.5539 0.57254,-8.96737 0.87035,-2.63717 0.9474,-4.3615 0.25054,-5.60672 -0.67863,-1.21264 -0.6682,-2.76833 0.032,-4.77696 0.84622,-2.42759 0.73289,-3.20207 -0.61275,-4.18603 -2.45992,-1.79874 -2.04228,-6.86855 0.84887,-10.30448 1.3825,-1.64304 2.5029,-4.24753 2.5066,-5.82673 0,-1.5706 0.8827,-4.18474 1.9535,-5.80919 1.1165,-1.69374 1.5928,-3.3999 1.1168,-4 -0.4566,-0.57555 -1.1407,-3.61515 -1.5203,-6.75468 -0.5302,-4.3855 -0.2977,-6.5351 1.0032,-9.27654 1.079,-2.27386 1.4915,-4.81183 1.137,-6.99623 -0.3944,-2.43055 -0.033,-4.09582 1.2407,-5.72346 1.6096,-2.05608 1.708,-3.42919 0.9435,-13.1632 -0.4695,-5.97721 -0.6384,-11.2158 -0.3755,-11.64131 0.263,-0.42551 -0.4121,-2.78628 -1.5002,-5.24615 -1.8756,-4.24001 -1.8961,-4.75245 -0.3945,-9.85868 0.8712,-2.96241 2.2539,-6.13948 3.0727,-7.06015 1.3286,-1.49377 1.2589,-1.98498 -0.6475,-4.56352 -1.7155,-2.32028 -2.0425,-3.86214 -1.6596,-7.82605 0.2622,-2.71507 0.7636,-8.08648 1.1141,-11.93648 0.3506,-3.85 0.8297,-7.96286 1.0648,-9.1397 0.669,-3.34892 3.2877,-3.67015 6.6762,-0.81894 1.6694,1.40466 3.7575,2.41482 4.6404,2.2448 3.0463,-0.58666 2.2528,-3.76802 -2.3488,-9.41693 -3.8202,-4.68962 -4.5103,-6.15108 -4.0006,-8.47172 0.5555,-2.52897 0.2901,-2.88889 -2.7017,-3.66415 -4.6126,-1.19524 -4.5792,-3.28086 0.1312,-8.18341 4.0676,-4.23354 5.1654,-7.04995 2.748,-7.04995 -0.715,0 -1.8008,0.50079 -2.4129,1.11287 -1.3342,1.33417 -3.2871,0.34086 -3.2871,-1.67189 0,-0.79254 -0.8449,-1.44098 -1.8776,-1.44098 -2.6654,0 -4.4414,-2.55092 -3.8673,-5.55451 0.3794,-1.98425 -0.1041,-2.93449 -2.1323,-4.19133 -1.44254,-0.89392 -3.33493,-2.48844 -4.2053,-3.54338 -0.87036,-1.05493 -3.34536,-2.27352 -5.5,-2.70797 -7.78779,-1.57031 -19.01434,-4.81242 -23.55363,-6.80203 -2.54985,-1.11763 -8.17485,-2.6013 -12.5,-3.29704 -4.32514,-0.69574 -10.38729,-2.50782 -13.47145,-4.02685 -4.20474,-2.07094 -8.28762,-3.05042 -16.32073,-3.91532 -5.89224,-0.63439 -10.92925,-0.93735 -11.19337,-0.67324 -0.26411,0.26411 -0.70029,5.81978 -0.96929,12.34594 -0.3724,9.0347 -0.99471,13.05868 -2.60827,16.86573 -2.21784,5.2328 -3.04933,8.43034 -5.20085,20 -1.85037,9.95028 -4.69596,15.77819 -9.00402,18.44073 -1.97775,1.22231 -3.59591,2.79094 -3.59591,3.48584 0,0.6949 -0.94788,2.1207 -2.10641,3.16844 -2.82517,2.55502 -5.89359,8.73245 -5.89359,11.86515 0,1.39691 -0.88963,3.42947 -1.97695,4.51679 -1.08732,1.08732 -2.65594,3.60201 -3.48582,5.5882 -0.82989,1.98618 -2.86526,5.32381 -4.52305,7.41695 -2.01919,2.54944 -3.01418,4.93158 -3.01418,7.21639 0,3.55045 -2.04677,6.2392 -10.54112,13.84739 -2.17738,1.95023 -7.67452,7.38837 -12.21585,12.08475 -8.37266,8.65851 -10.53258,10.23313 -15.52627,11.31897 -1.53079,0.33286 -3.55579,1.51683 -4.5,2.63105 -2.22626,2.6271 -9.66578,5.91935 -13.376,5.91935 -1.59775,0 -4.5205,0.675 -6.495,1.5 -1.97451,0.825 -4.41939,1.5 -5.43309,1.5 -1.01369,0 -3.32124,1.26747 -5.12787,2.8166 -8.60754,7.38067 -14.00561,8.75571 -20.1472,5.13208 -3.36467,-1.9852 -3.66046,-1.9979 -9.17716,-0.39416 -4.45171,1.29415 -6.24113,1.4108 -8.16875,0.53252 -1.53223,-0.69813 -4.83871,-0.88179 -8.71861,-0.48428 -4.28226,0.43873 -7.00521,0.23634 -8.64784,-0.64277 -1.31866,-0.70572 -4.66598,-1.19136 -7.4385,-1.07919 -3.32837,0.13465 -6.66025,-0.51236 -9.80741,-1.9045 -4.5615,-2.01777 -4.95128,-2.03786 -9.06408,-0.46716 -2.36368,0.9027 -5.83158,1.49493 -7.70643,1.31606 -3.32425,-0.31713 -3.4025,-0.42771 -3.15397,-4.45701 0.27148,-4.40141 -1.25058,-6.16775 -6.75485,-7.83899 -1.375,-0.41749 -3.50805,-1.68161 -4.74011,-2.80916 -3.55048,-3.2493 -6.70776,-1.13707 -10.3137,6.89989 -1.63507,3.64426 -4.2538,8.2581 -5.81941,10.25299 -3.71482,4.73342 -12.12678,18.67227 -12.12678,20.09442 0,0.609 -1.95006,3.00298 -4.33347,5.31996 -3.85745,3.74995 -4.41032,4.86715 -5.03317,10.17061 -0.38484,3.27686 -1.42655,6.76108 -2.31492,7.74272 -1.71105,1.89068 -4.04263,12.31543 -4.98746,22.29937 -0.31229,3.3 -1.01366,6.55533 -1.55861,7.23406 -1.07936,1.34436 -3.1796,16.23009 -2.85934,20.26594 0.10912,1.375 0.28747,4.75 0.39634,7.5 0.11316,2.85833 0.94596,6.05906 1.94429,7.47251 0.98286,1.39155 1.74634,4.28362 1.74634,6.61514 0,3.62513 2.03896,7.85959 5.0137,10.41235 0.32047,0.275 1.6606,2.075 2.97808,4 1.31748,1.925 6.4708,7.62242 11.45182,12.66094 4.98102,5.03852 10.8564,11.50697 13.0564,14.37435 4.38484,5.71499 16.64686,18.43818 23.12003,23.98956 3.56148,3.05432 12.67776,6.97515 16.21786,6.97515 1.69723,0 1.42205,-2.96302 -0.33789,-3.63837 -1.94958,-0.74813 -1.93166,-3.25876 0.0286,-4.01099 0.9744,-0.37391 3.4729,1.2522 6.8911,4.485 2.94935,2.78937 6.64896,5.35682 8.22136,5.70545 1.5724,0.34862 3.30891,0.75788 3.85891,0.90948 1.77645,0.48963 1.73554,-0.26162 -0.15173,-2.78643 z m 221.65173,-77.66414 c 0,-0.55 0.70156,-1 1.55902,-1 0.85746,0 1.2809,0.45 0.94098,1 -0.33992,0.55 -1.04148,1 -1.55902,1 -0.51754,0 -0.94098,-0.45 -0.94098,-1 z m 4.27083,-3.60417 c 0.33229,-0.33229 1.19479,-0.36781 1.91667,-0.0789 0.79773,0.31922 0.56078,0.55618 -0.60417,0.60416 -1.05416,0.0434 -1.64479,-0.19293 -1.3125,-0.52522 z m -155.34965,-23.87789 c -20.2254,-4.42986 -30.92118,-14.28569 -30.92118,-28.49288 0,-7.78336 6.86902,-15.53956 16.42364,-18.54486 5.06512,-1.59318 6.64251,-1.66303 13.57816,-0.6013 4.31601,0.6607 10.46874,2.04545 13.67274,3.07721 3.204,1.03176 7.03261,2.13968 8.50802,2.46203 1.47541,0.32236 4.99919,2.72266 7.83063,5.33399 4.29726,3.9632 5.35799,5.65684 6.41823,10.24787 1.12326,4.86393 1.05215,6.19389 -0.61488,11.5 -4.17914,13.30201 -17.18129,18.89775 -34.89536,15.01794 z m -0.92118,-33.48276 c 0,-1.47231 -3.65466,-3.10493 -5.42756,-2.42461 -3.173,1.2176 -1.31547,3.15283 3.17756,3.31048 1.2375,0.0434 2.25,-0.35522 2.25,-0.88587 z m 118.51839,-88.39807 c -3.41257,-2.49534 -2.80655,-13.40934 0.88131,-15.8718 3.69696,-2.46852 9.6003,1.15751 9.6003,5.89683 0,3.6446 -4.64873,11.33786 -6.85102,11.33786 -0.9717,0 -2.60546,-0.6133 -3.63059,-1.36289 z m 103.48163,197.16289 c 0,-1.61542 -0.2957,-1.90429 -1.1129,-1.08713 -0.6121,0.61207 -0.8105,1.60207 -0.441,2.2 1.0344,1.67368 1.5539,1.30164 1.5539,-1.11287 z m -52.00002,-27.8 c 0,-1.65 -0.4132,-3 -0.91821,-3 -2.21104,0 -4.08179,1.3476 -4.08179,2.94032 0,2.21307 0.87621,3.05968 3.16667,3.05968 1.37037,0 1.83333,-0.75758 1.83333,-3 z m 12.82035,-20.28354 c 0.61033,-0.73539 0.70852,-1.86073 0.22993,-2.6351 -0.65438,-1.05882 -1.07518,-0.90335 -1.94279,0.7178 -0.60912,1.13815 -1.10749,2.32394 -1.10749,2.6351 0,1.02935 1.73731,0.58719 2.82035,-0.7178 z m -15.04952,-2.90396 c -0.2177,-0.65313 -0.93051,-1.36573 -1.58401,-1.58356 -0.73075,-0.24358 -0.95424,0.21359 -0.58051,1.1875 0.69752,1.81771 2.76448,2.19592 2.16452,0.39606 z m 65.82169,-28.3253 c 0.3469,-1.38204 0.3518,-3.96954 0.011,-5.75 -0.3409,-1.78046 -0.7286,-4.4747 -0.8616,-5.9872 -0.1329,-1.5125 -0.6917,-2.8625 -1.2417,-3 -0.5947,-0.14867 -1.1092,3.29651 -1.2694,8.5 -0.2226,7.23164 -0.01,8.75 1.231,8.75 0.8252,0 1.7841,-1.13076 2.131,-2.5128 z M -564.54949,314.65668 c 4.58088,-2.89178 4.9817,-4.19798 1.5523,-5.0587 -4.33952,-1.08915 -6.57217,0.31679 -6.57217,4.13863 0,1.88794 0.23394,3.43261 0.51987,3.43261 0.28593,0 2.31093,-1.13064 4.5,-2.51254 z m 25.4467,-4.89801 c 20.092,-7.02651 24.39253,-7.46933 29.71196,-3.0594 4.2459,3.51994 9.15975,3.96127 15.92707,1.43046 8.17767,-3.05824 8.42074,-3.4588 7.65755,-12.61886 -0.42352,-5.08312 -3.98268,-7.15049 -12.0206,-6.98228 -4.51352,0.0945 -6.88533,0.57117 -7.22341,1.45184 -0.40669,1.05942 -1.03292,1.02489 -3.26124,-0.17984 -8.13123,-4.39609 -14.02233,-4.6442 -18.4731,-0.77802 -5.32662,4.62699 -7.65482,5.55418 -10.33923,4.11752 -1.84577,-0.98782 -3.21967,-0.96305 -6.90272,0.12442 -4.02124,1.18733 -4.73956,1.82923 -5.72403,5.11511 -0.61916,2.06656 -1.95669,4.50938 -2.97228,5.42848 -1.82003,1.64711 -2.4804,5.39394 -1.17987,6.69446 1.18378,1.18378 10.64806,0.70807 14.7999,-0.74389 z m 329.83305,340.41055 c 0,-3.025 0.1875,-4.2625 0.4166,-2.75 0.2292,1.5125 0.2292,3.9875 0,5.5 -0.2291,1.5125 -0.4166,0.275 -0.4166,-2.75 z m 1.7004,-11.94098 c 0,-1.06754 0.45,-2.2191 1,-2.55902 0.5671,-0.35052 1,0.48962 1,1.94098 0,1.40746 -0.45,2.55902 -1,2.55902 -0.55,0 -1,-0.87344 -1,-1.94098 z"
           style="fill:#9bdfea" />
        <path
           inkscape:connector-curvature="0"
           id="path3313"
           d="m -446.92452,746.36079 c -2.41642,-2.67011 -2.11349,-2.92377 2.63158,-2.20365 5.50333,0.8352 7.46477,1.94162 5.57019,3.14208 -2.30164,1.45839 -6.46364,0.98219 -8.20177,-0.93843 z m 58.80389,-22.23779 c -0.92034,-1.48915 0.14673,-2.29879 2.06137,-1.56407 0.88358,0.33906 1.32643,1.06965 0.98412,1.62354 -0.81058,1.31154 -2.21511,1.28411 -3.04549,-0.0595 z m 66.69639,-26.11199 c -10.62606,-1.33165 -17.74872,-4.31935 -23.63001,-9.91193 -7.92027,-7.53148 -11.85139,-16.90955 -7.08819,-16.90955 0.82491,0 3.27692,2.40555 5.44891,5.34566 3.13994,4.25038 5.65632,6.24255 12.28154,9.72308 7.9037,4.15216 8.74415,4.37301 16.33248,4.29184 13.28791,-0.14213 20.68763,-4.97588 26.26416,-17.15661 2.20467,-4.81565 2.41689,-6.35908 1.99994,-14.54563 -0.41523,-8.15286 -0.92739,-10.14179 -4.66497,-18.11601 -2.3092,-4.92672 -5.79357,-10.90419 -7.74305,-13.28328 -3.82465,-4.66747 -3.8545,-7.25905 -0.0836,-7.25905 4.84089,0 10.81866,8.62739 16.11434,23.25694 3.16219,8.73568 3.54309,10.87517 3.64933,20.49839 0.17106,15.49361 -1.53243,19.98262 -10.15316,26.75546 -5.74361,4.51243 -15.20276,8.61208 -19.28951,8.36017 -1.1514,-0.071 -5.39858,-0.54324 -9.43818,-1.04948 z m -256.79639,-29.82716 c -5.04866,-4.16213 -10.35888,-10.54442 -10.35888,-12.45022 0,-0.60479 -0.94278,-1.90685 -2.09506,-2.89347 -3.21892,-2.75612 -1.41519,-3.19609 2.12257,-0.51773 3.59177,2.71925 6.18854,5.16616 10.57937,9.96881 1.70879,1.86906 3.84629,3.97853 4.75,4.68772 1.72558,1.35413 2.28215,5.21057 0.752,5.21057 -0.49011,0 -3.07761,-1.80255 -5.75,-4.00568 z m 138.64112,-72.3971 c -3.025,-0.67934 -8.45276,-2.59999 -12.0617,-4.2681 -18.59436,-8.59464 -21.0674,-29.37082 -4.52615,-38.02464 6.79622,-3.55556 19.3982,-2.71663 34.58785,2.30255 9.31453,3.07784 15.35336,8.4764 17.47559,15.62274 1.30193,4.38405 1.24173,5.26059 -0.78258,11.39486 -1.80925,5.48255 -2.91099,7.15944 -6.29587,9.58254 -6.71721,4.80859 -16.74827,6.0061 -28.39714,3.39005 z m 3.70557,-30.19584 c 0.64656,-1.97217 -3.12474,-5.19248 -6.82019,-5.82375 -4.66706,-0.79724 -9.13023,2.21749 -7.02977,4.74839 2.08563,2.51304 13.09831,3.3681 13.84996,1.07536 z m 219.29443,27.59862 c 0,-0.55 0.19844,-1 0.44098,-1 0.24254,0 0.7191,0.45 1.05902,1 0.33992,0.55 0.14148,1 -0.44098,1 -0.58246,0 -1.05902,-0.45 -1.05902,-1 z m -1.80557,-3.20557 c -1.4987,-1.4987 -1.50692,-3.01447 -0.0339,-6.24738 1.66132,-3.6462 2.84191,-3.14333 2.82417,1.20295 -0.0194,4.74409 -1.11317,6.72152 -2.79026,5.04443 z m -382.19443,-29.04428 c 0,-4.70462 1.98421,-8.49598 3.84463,-7.34617 0.84082,0.51965 0.74762,1.48385 -0.3483,3.60311 -0.82298,1.59147 -1.49633,3.78938 -1.49633,4.88423 0,1.09486 -0.45,2.26876 -1,2.60868 -0.60837,0.37599 -1,-1.09257 -1,-3.74985 z m 3.63837,-12.25015 c 0.31659,-0.825 0.75246,-1.5 0.96862,-1.5 0.21615,0 0.39301,0.675 0.39301,1.5 0,0.825 -0.43588,1.5 -0.96861,1.5 -0.53274,0 -0.7096,-0.675 -0.39302,-1.5 z m 9.36163,-16.22257 c 0,-1.0821 0.9,-2.78194 2,-3.77743 1.1,-0.99549 2.0276,-2.52773 2.06134,-3.40499 0.0337,-0.87725 1.81427,-4.29501 3.95675,-7.59501 2.14247,-3.3 5.28717,-8.32591 6.98823,-11.1687 5.27224,-8.8109 8.39319,-9.88689 5.69319,-1.9628 -1.4968,4.39287 -8.58446,14.81702 -14.63679,21.52702 -1.6845,1.86754 -3.06272,3.94994 -3.06272,4.62756 0,0.67762 -0.675,1.79223 -1.5,2.47692 -1.24689,1.03483 -1.5,0.9129 -1.5,-0.72257 z m 443,-10.47512 c -6.25719,-2.82152 -9,-5.58359 -9,-9.06318 0,-4.04105 -11.1117,-15.73913 -14.95019,-15.73913 -2.16462,0 -3.11697,-0.93421 -5.35198,-5.25 -1.49535,-2.8875 -4.51335,-7.725 -6.70667,-10.75 -2.19333,-3.025 -3.98861,-6.24709 -3.98951,-7.1602 -9.1e-4,-0.91311 -1.80165,-3.93738 -4.00165,-6.72058 l -4,-5.06038 0,-17.56081 c 0,-20.51118 6.7e-4,-20.51001 -8.7553,-15.2937 -5.50866,3.28175 -5.73121,3.57385 -5.4165,7.10902 0.18052,2.02766 0.12094,3.68665 -0.13238,3.68665 -0.25332,0 -1.67808,-3.9375 -3.16613,-8.75 -1.48805,-4.8125 -4.11062,-11.45 -5.82793,-14.75 -3.17292,-6.09713 -4.32718,-11.31664 -5.3446,-24.16799 -0.50193,-6.33998 -0.82431,-7.23244 -2.79088,-7.72602 -2.18134,-0.54748 -4.56628,-4.28347 -4.56628,-7.15304 0,-2.35288 4.42819,-1.69051 7,1.04705 2.379,2.53233 6.36882,3.33029 7.5,1.5 0.33992,-0.55 3.02342,-1 5.96335,-1 l 5.34531,0 16.61645,-16.5 c 14.58188,-14.47968 17.01185,-16.5008 19.84567,-16.50659 1.77607,-0.004 4.57922,-0.90065 6.22922,-1.99341 3.82371,-2.53234 6.96765,-2.53234 9.5,0 2.98673,2.98673 2.56408,5 -1.04966,5 -5.14564,0 -8.74871,2.53748 -9.95286,7.00936 -1.12807,4.18933 -5.05286,7.70261 -8.03958,7.19662 -0.90845,-0.1539 -2.22571,0.41179 -2.92726,1.2571 -1.46167,1.76121 -0.71925,1.97582 1.9301,0.55794 3.82859,-2.04901 4.77726,2.15523 2.51226,11.13363 -0.5488,2.17542 -0.0896,3.16833 2.54343,5.5 1.76723,1.56494 3.5272,3.68226 3.91105,4.70515 0.39484,1.0522 2.84142,2.60044 5.6341,3.56537 3.29619,1.1389 5.05393,2.34833 5.29055,3.6402 0.75347,4.11374 3.24088,5.60951 8.19528,4.92811 4.39095,-0.60391 4.77922,-0.45497 7.80866,2.99538 1.75338,1.99698 2.91343,4.07508 2.5779,4.61798 -0.9663,1.5635 3.19605,9.45563 6.27003,11.88845 2.4405,1.93148 3.56823,2.13478 8.86956,1.599 3.34046,-0.33761 6.3661,-0.3213 6.72365,0.0362 0.35755,0.35755 -0.0804,1.88679 -0.97332,3.39831 -2.04112,3.45533 -1.16788,5.82631 2.68088,7.27905 1.65012,0.62285 3.25457,1.93386 3.56545,2.91334 0.99463,3.1338 3.60931,3.63509 8.226695,1.57721 5.15044,-2.29545 6.85992,-5.66915 5.36529,-10.58853 -0.64051,-2.10815 -0.66083,-4.44321 -0.0566,-6.5 0.51867,-1.76546 0.68297,-4.80607 0.3651,-6.75692 -0.4361,-2.6765 -0.0739,-4.18772 1.47567,-6.15773 1.12948,-1.4359 2.0536,-3.32725 2.0536,-4.203 0,-1.01124 0.87022,-1.59227 2.38478,-1.59227 2.13976,0 2.45515,0.56329 3.06978,5.48258 0.37675,3.01543 0.36313,6.00338 -0.0303,6.63991 -0.3934,0.63653 -0.635,3.83262 -0.53688,7.10243 0.15651,5.21595 -0.071,6.01031 -1.85452,6.47673 -2.28804,0.5984 -2.77278,2.2984 -0.65528,2.2984 0.75765,0 1.90966,0.64115 2.56002,1.42479 0.93643,1.12832 0.64718,2.27273 -1.3901,5.5 -1.41491,2.24136 -2.90442,4.07828 -3.31002,4.08204 -1.28214,0.0119 -5.23746,6.52981 -5.23746,8.63074 0,1.10759 1.125,3.07068 2.5,4.36243 3.00934,2.82712 3.20677,6.05041 0.51956,8.4823 -1.08925,0.98575 -2.26027,3.28385 -2.60227,5.10689 -0.342,1.82304 -2.1508,4.88895 -4.01956,6.81314 -2.51621,2.59087 -3.39773,4.38377 -3.39773,6.9106 0,2.28562 -0.990395,4.65832 -2.999995,7.18707 -1.65,2.07626 -3,4.31839 -3,4.98252 0,0.66413 -0.8912,2.01403 -1.98044,2.99978 -1.08925,0.98575 -2.24289,3.418 -2.56367,5.40499 -1.14705,7.10532 -1.98647,8.11671 -6.58698,7.93644 -3.42304,-0.13413 -4.6041,0.32966 -6.52429,2.56201 -1.28954,1.49918 -2.34462,3.48347 -2.34462,4.40952 0,0.92605 -0.7875,3.59927 -1.75,5.94048 l -1.75,4.25676 -5.5,-0.0805 c -3.2213,-0.0472 -7.36439,-0.92121 -10,-2.10968 z m 45.999995,-77.83705 c 2.44602,-1.94729 2.45809,-2.02239 0.55887,-3.47776 -4.503045,-3.45071 -9.627985,-0.43133 -6.025155,3.54975 2.17719,2.40577 2.35692,2.4034 5.466285,-0.072 z m 13,-30.96526 c 0,-0.55 -0.42344,-1 -0.94098,-1 -0.51754,0 -1.2191,0.45 -1.55902,1 -0.33992,0.55 0.0835,1 0.94098,1 0.85746,0 1.55902,-0.45 1.55902,-1 z M -467.0936,513.99979 c -3.23247,-2.54267 -7.77593,-2.7838 -14.18902,-0.75305 -3.51988,1.11459 -4.617,1.10943 -6.74934,-0.0318 -1.99959,-1.07015 -3.55978,-1.13077 -7.2673,-0.28237 -3.74699,0.85743 -5.28431,0.78906 -7.45099,-0.33138 -1.50147,-0.77643 -5.42573,-1.4117 -8.72058,-1.4117 -3.29486,0 -6.2612,-0.43777 -6.59189,-0.97283 -0.33068,-0.53505 -2.41158,-1.4603 -4.62422,-2.0561 -3.1543,-0.84936 -5.1347,-0.75739 -9.17136,0.42592 -5.54244,1.62472 -6.66999,1.45114 -4.84646,-0.74608 0.63787,-0.76858 0.90229,-2.06837 0.5876,-2.88842 -0.56479,-1.47178 -9.99404,-6.76245 -12.05239,-6.76245 -0.58373,0 -2.15227,-1.16776 -3.48565,-2.59501 -1.33337,-1.42726 -3.66181,-3.23882 -5.17431,-4.02568 -3.6442,-1.89587 -3.87679,-5.70022 -0.29352,-4.80088 2.08164,0.52246 2.57038,0.18204 3.2029,-2.23094 0.41052,-1.56612 0.62228,-3.66182 0.47056,-4.65712 -0.36237,-2.37712 1.63914,-4.71621 3.44317,-4.02394 1.05567,0.4051 1.42689,-0.29889 1.42689,-2.70594 0,-3.36143 4.84268,-11.7101 8.93752,-15.40807 1.18613,-1.07116 3.06985,-3.54616 4.18605,-5.5 1.11619,-1.95383 3.76152,-4.76179 5.87849,-6.23992 3.72514,-2.60097 6.77247,-7.76754 8.38755,-14.22056 0.40031,-1.59943 3.56609,-5.87443 7.03508,-9.5 3.46898,-3.62557 6.48006,-7.15351 6.69128,-7.83987 0.5837,-1.89678 17.55525,-22.79189 25.51757,-31.41686 1.38952,-1.50515 1.33694,-1.86473 -0.54833,-3.75 -1.14686,-1.14686 -2.08521,-2.55303 -2.08521,-3.12481 0,-0.57178 -1.6875,-2.73826 -3.75,-4.8144 -2.0625,-2.07615 -4.2,-4.50918 -4.75,-5.40675 -0.55,-0.89757 -2.575,-1.88725 -4.5,-2.1993 -3.07199,-0.49798 -4.0302,-0.0765 -7.83565,3.44635 -2.38461,2.20754 -4.88078,4.0137 -5.54705,4.0137 -2.07814,0 -8.42678,7.34012 -9.29237,10.74357 -0.87113,3.42525 -10.02454,13.50936 -14.32493,15.78148 -1.375,0.72648 -4.95963,3.83054 -7.96584,6.89791 -3.00621,3.06737 -6.28664,5.57704 -7.28984,5.57704 -5.41276,0 -20.74432,12.96576 -20.74432,17.54329 0,2.54981 -6.91576,9.45671 -9.46884,9.45671 -1.03648,0 -4.95758,2.08057 -8.71354,4.62348 -4.9529,3.35327 -8.13244,4.76829 -11.57333,5.15056 -3.25963,0.36214 -5.99603,1.51091 -8.74429,3.67095 -5.16112,4.05647 -13.46184,6.94194 -17.45014,6.06596 -5.50189,-1.20842 -6.64683,-4.30376 -8.31256,-22.47294 -0.9112,-9.93902 -1.95065,-16.60913 -2.62326,-16.83333 -0.77039,-0.2568 -1.11404,-6.6914 -1.11404,-20.85944 0,-16.87831 0.26428,-20.75238 1.5,-21.98809 0.825,-0.825 1.5,-2.76291 1.5,-4.30645 0,-1.54355 0.675,-4.42195 1.5,-6.39645 0.825,-1.97451 1.5,-4.9279 1.5,-6.56311 0,-1.63521 0.45,-3.25122 1,-3.59114 0.55,-0.33992 1,-1.94992 1,-3.57779 0,-1.62787 1.13576,-6.21056 2.52391,-10.18375 1.87266,-5.35997 3.7628,-8.51601 7.3252,-12.23122 2.64071,-2.75398 5.57669,-6.26209 6.52441,-7.79581 1.76986,-2.86419 11.65774,-11.04038 16.58194,-13.71143 1.52092,-0.825 4.6192,-2.7375 6.88505,-4.25 2.26586,-1.5125 5.32371,-2.75 6.79523,-2.75 1.47151,0 4.10518,-1.09048 5.8526,-2.4233 1.74741,-1.33282 4.8313,-2.73364 6.85309,-3.11293 2.02178,-0.37928 4.68455,-1.47517 5.91727,-2.43529 4.03185,-3.14029 8.2312,-4.84844 10.75926,-4.37649 1.63877,0.30593 3.65223,-0.40561 5.92632,-2.09432 1.89435,-1.40671 4.68568,-2.55767 6.20295,-2.55767 1.51726,0 3.79234,-0.42378 5.05572,-0.94173 1.26338,-0.51796 4.88482,-1.22537 8.04765,-1.57204 3.16283,-0.34666 6.39319,-1.27288 7.17857,-2.05826 1.70456,-1.70455 21.57083,-2.0987 21.57083,-0.42797 0,0.55 1.4625,1.00297 3.25,1.00659 1.7875,0.004 4.6,0.90066 6.25,1.99341 1.65,1.09276 4.4666,1.98979 6.2591,1.99341 2.25106,0.005 4.23006,0.9345 6.39832,3.00659 1.72656,1.65 3.5099,3 3.96297,3 0.45307,0 2.63633,2.78948 4.85169,6.19884 3.283,5.05243 4.02792,7.08622 4.02792,10.99712 0,4.03626 0.5342,5.39428 3.36373,8.55116 3.90811,4.36025 6.63627,9.32999 6.63627,12.08892 0,1.06444 0.67223,3.22429 1.49384,4.79966 0.82161,1.57537 1.49661,3.63615 1.5,4.57951 0.003,0.94336 1.44499,3.35393 3.20355,5.35683 3.13413,3.56957 3.30727,3.62928 8.75,3.01748 3.05394,-0.34328 9.82761,-0.86286 15.05261,-1.15461 5.27576,-0.29458 10.9692,-1.20847 12.80411,-2.05527 2.73209,-1.26084 7.75274,-1.4874 29,-1.30862 18.24775,0.15355 26.56546,0.5879 28.69589,1.4985 1.65,0.70526 4.73422,2.03392 6.85382,2.95257 2.79464,1.21122 4.15509,1.36901 4.95,0.5741 0.6029,-0.6029 1.96128,-1.09619 3.01862,-1.09619 1.63139,0 1.7257,0.23708 0.62292,1.56584 -1.04532,1.25953 -1.05879,2.23158 -0.0689,4.96917 0.95354,2.63696 0.97835,5.71839 0.1102,13.68416 -1.00157,9.18997 -1.42567,10.59915 -3.997,13.28083 -4.36665,4.55406 -6.94249,11.13355 -6.96774,17.79775 -0.0183,4.83964 -0.42368,6.17005 -2.45287,8.05064 -1.337,1.23909 -2.73605,3.46866 -3.109,4.9546 -0.37295,1.48594 -1.52904,4.3708 -2.56909,6.4108 -1.04005,2.04 -1.891,4.27739 -1.891,4.97197 0,0.69458 -1.2928,1.93141 -2.8729,2.74851 -3.16985,1.6392 -4.09295,3.9491 -4.11345,10.29319 -0.0143,4.42628 -3.59395,12.1621 -9.12498,19.71954 -1.98277,2.7092 -2.88867,5.13584 -2.88867,7.73788 0,3.17672 -0.67357,4.40037 -4.15761,7.553 -2.28669,2.06916 -8.41967,8.14875 -13.62884,13.51018 -9.96657,10.25794 -14.55988,13.75194 -18.07866,13.75194 -1.171,0 -3.81788,1.49417 -5.88197,3.32037 -4.2797,3.78647 -7.82129,5.29412 -14.25288,6.06742 -9.50718,1.1431 -14.4795,2.68148 -17.46212,5.40258 -8.08417,7.37534 -10.12888,8.10579 -14.05197,5.01989 z m -2.48591,-119.40702 c 0,-0.74354 1.4625,-2.09107 3.25,-2.99453 1.7875,-0.90346 4.15,-2.43178 5.25,-3.39628 1.1,-0.96449 3.33097,-2.37435 4.95771,-3.13302 1.62674,-0.75868 3.20174,-2.27941 3.5,-3.37941 0.29826,-1.1 1.77979,-3.90356 3.29229,-6.23012 1.5125,-2.32658 2.75,-5.1287 2.75,-6.22695 0,-3.07417 4.15946,-5.29124 8.42548,-4.49093 2.61058,0.48975 5.08691,0.0665 9.07092,-1.55054 3.11304,-1.26348 6.46372,-1.9773 7.75742,-1.6526 1.69681,0.42587 3.22935,-0.32656 6.01177,-2.95162 2.05393,-1.93775 3.73441,-4.13953 3.73441,-4.89283 0,-1.42421 -3.41535,-2.9836 -4.74105,-2.16468 -0.41742,0.25785 -3.22611,0.74345 -6.24153,1.07913 -5.07422,0.56485 -11.57492,3.23625 -21.51239,8.84032 -2.4936,1.40622 -4.66493,3.67572 -5.77764,6.03885 -0.98047,2.08228 -2.44524,4.04021 -3.25503,4.35095 -0.82699,0.31735 -1.47236,1.83308 -1.47236,3.45801 0,1.64686 -0.53843,2.89372 -1.25,2.89466 -0.6875,9e-4 -3.725,1.80808 -6.75,4.01594 -3.025,2.20786 -6.25065,4.27496 -7.16812,4.59357 -2.29484,0.79692 -4.19631,5.80071 -3.40396,8.95768 0.53943,2.14925 0.91093,2.39483 2.11328,1.39697 0.80234,-0.66589 1.4588,-1.81904 1.4588,-2.56257 z m 58.04238,-15.76086 c -1.3352,-1.3352 -3.57419,0.68812 -2.56622,2.31905 0.51879,0.83942 1.08103,0.82103 2.15525,-0.0705 1.0083,-0.83681 1.13415,-1.52538 0.41097,-2.24856 z m 5.95762,-3.64238 c 0,-1.1 -0.42344,-2 -0.94098,-2 -1.34235,0 -2.28822,1.82013 -1.55902,3 1.04512,1.69104 2.5,1.10908 2.5,-1 z m 4.55887,-21.46658 c 1.25195,-0.94588 3.09501,-1.26141 5.19113,-0.88871 1.9363,0.34429 3.25,0.16173 3.25,-0.45163 0,-0.56623 0.27314,-1.7413 0.60699,-2.61129 0.44837,-1.16843 -0.009,-1.57822 -1.75,-1.56813 -3.82714,0.0222 -6.88266,1.13579 -6.19027,2.25611 0.42546,0.68839 -0.59714,0.84093 -3.01124,0.44918 -3.99258,-0.64791 -4.14835,-0.5084 -2.6203,2.3468 1.2414,2.31957 1.97253,2.39515 4.52369,0.46767 z m -113.33042,-4.28342 c 0.57972,-2.70466 -0.31482,-5.25 -1.84508,-5.25 -0.76085,0 -1.38337,0.8632 -1.38337,1.91822 0,4.35734 2.46366,6.89986 3.22845,3.33178 z m -16.22845,-9.25 c 0,-1.97284 0.50333,-3 1.47006,-3 0.80854,0 2.49037,-1.38004 3.73741,-3.06675 1.91664,-2.59239 2.74048,-2.97799 5.32608,-2.49293 2.25562,0.42316 3.88228,-0.0338 6.19534,-1.7403 4.3049,-3.17605 9.85899,-2.58017 12.08386,1.29643 l 1.57844,2.75029 4.5587,-3.40339 c 2.50728,-1.87185 6.77863,-6.08987 9.4919,-9.37336 2.71326,-3.28349 5.71669,-5.96999 6.67428,-5.96999 3.01619,0 4.88393,-2.87293 4.88393,-7.51241 0,-2.40325 -0.43184,-4.63644 -0.95964,-4.96264 -0.5278,-0.3262 -1.75037,-3.10158 -2.71682,-6.16752 -1.66674,-5.28749 -2.042,-5.70063 -7.29036,-8.02635 -11.60319,-5.14173 -29.21219,-6.69377 -42.53318,-3.74882 -3.85,0.85115 -9.78108,1.92081 -13.18019,2.37704 -3.3991,0.45622 -7.21173,1.55202 -8.4725,2.4351 -1.26078,0.88308 -2.94426,1.6056 -3.74108,1.6056 -0.79681,0 -2.15918,0.61618 -3.02749,1.36928 -0.86831,0.75311 -4.72874,2.59895 -8.57874,4.10189 -3.85,1.50293 -8.18729,3.84784 -9.63842,5.21091 -1.62754,1.52877 -4.30951,2.69193 -7,3.03588 -4.8854,0.62453 -9.79311,2.81344 -11.48458,5.12228 -0.61766,0.84309 -3.52594,2.68644 -6.46286,4.09633 -4.91879,2.3613 -5.44981,2.95771 -6.73424,7.56343 -0.76691,2.75 -1.38712,6.11868 -1.37824,7.48596 0.009,1.36728 -0.43932,3.33701 -0.996,4.37718 -0.74119,1.38492 -0.64988,2.12077 0.3411,2.74872 1.88912,1.19709 13.60068,1.10582 14.35324,-0.11186 0.88602,-1.43361 9.9925,-1.16931 16.95016,0.49195 4.67106,1.1153 6.28332,1.16139 7.5,0.21438 2.20454,-1.71591 2.99376,-2.98805 2.42484,-3.90858 -0.27117,-0.43876 -0.0323,-0.79775 0.5308,-0.79775 0.56311,0 1.48919,0.86953 2.05796,1.93228 1.51632,2.83327 4.82811,3.56606 7.04587,1.55901 1.75895,-1.59183 2.10269,-1.55613 5.97588,0.62072 3.40826,1.91555 4.44044,2.10308 6.04846,1.09885 3.1378,-1.95959 5.12724,-1.42569 8.5299,2.28914 4.04182,4.41264 6.43613,4.59865 6.43613,0.5 z m 331.75,162.42808 c -0.4125,-0.41878 -0.75,-2.57641 -0.75,-4.79475 0,-2.86061 0.31059,-3.72274 1.06822,-2.96511 0.58752,0.58752 0.92502,2.74516 0.75,4.79475 -0.17502,2.04959 -0.65572,3.38389 -1.06822,2.96511 z m -120.55,-28.62808 c -1.77441,-1.77441 -1.51415,-10.343 0.37143,-12.22857 3.97024,-3.97024 9.52975,1.40204 7.35911,7.11127 -2.08695,5.48908 -5.25899,7.58885 -7.73054,5.1173 z m 68.54703,-109.95609 c -6.06417,-4.24301 -6.63102,-6.46471 -1.37861,-5.40333 1.72237,0.34804 4.38051,0.89405 5.90699,1.21334 3.01457,0.63057 5.72459,3.74013 5.72459,6.56859 0,2.92889 -3.99055,2.00311 -10.25297,-2.3786 z m 115.82855,-7.19245 c -4.26907,-3.81913 -5.74475,-5.76823 -5.28138,-6.97573 0.99084,-2.58212 4.02772,-1.99461 7.26871,1.40618 1.6154,1.69505 4.39959,3.69709 6.18709,4.44897 2.46008,1.0348 3.25,1.98711 3.25,3.9181 0,4.45973 -4.56047,3.34301 -11.42442,-2.79752 z m -194.57558,-11.82544 c -7.45126,-1.06281 -9.15316,-2.1385 -6.02889,-3.81056 1.73485,-0.92846 3.00853,-0.84064 6.17328,0.42564 2.19309,0.8775 4.47849,1.29198 5.07865,0.92106 2.91526,-1.80173 10.77696,0.21188 10.77696,2.76029 0,1.07861 -7.3091,0.9432 -16,-0.29643 z"
           style="fill:#67a6e8" />
        <path
           inkscape:connector-curvature="0"
           id="path3311"
           d="m -321.06936,696.13987 c -3.85,-0.42796 -8.92234,-1.47537 -11.27187,-2.32758 -8.11033,-2.94175 -19.28324,-14.70348 -19.19882,-20.21062 0.0305,-1.98957 1.90292,-0.17918 7.78384,7.52599 1.32397,1.73468 5.60027,4.62369 10,6.75587 6.65431,3.2248 8.84159,3.77679 16.28349,4.10936 10.75791,0.48077 17.0123,-1.8481 22.88707,-8.52219 5.02121,-5.7044 7.13369,-12.20353 7.3206,-22.5221 0.13909,-7.67832 -0.1573,-8.98215 -4.21496,-18.54223 -2.40051,-5.65574 -5.87327,-12.18074 -7.71725,-14.5 -1.84398,-2.31926 -3.35706,-4.77934 -3.36239,-5.46684 -0.0178,-2.29543 3.06945,-1.2862 6.11806,2 3.83034,4.12886 5.50169,7.21943 9.59901,17.75 5.95875,15.31463 5.45124,35.7772 -1.06275,42.84952 -4.17637,4.53433 -9.72314,8.34452 -14.90505,10.23857 -5.53585,2.02343 -7.13382,2.09889 -18.25898,0.86225 z m -116,-100.90909 c -7.53523,-1.33453 -16.82126,-5.93286 -21.715,-10.75302 -9.95817,-9.80842 -8.41454,-23.31338 3.35469,-29.3496 7.41679,-3.80393 17.9012,-3.37711 33.36031,1.35811 7.70859,2.36118 10.11952,3.89971 11.10268,7.08514 0.35956,1.16497 2.01334,3.26855 3.67506,4.67464 2.51028,2.12409 3.02696,3.30812 3.05464,7 0.0864,11.52333 -5.28844,18.22234 -16.03216,19.98194 -6.45285,1.05684 -10.84452,1.05757 -16.80022,0.003 z m 2.92857,-26.61268 c 3.61009,-3.61009 1.16327,-7.77483 -5.78591,-9.8482 -7.44912,-2.22253 -12.66303,0.60565 -10.68891,5.79799 0.73525,1.93385 1.7247,2.63645 3.7715,2.67808 1.52611,0.031 4.34975,0.65236 6.27475,1.38069 4.70673,1.78083 4.6391,1.78092 6.42857,-0.009 z m 296.57143,-47.53823 c -6.39609,-2.51465 -12.93989,-7.34016 -13.51698,-9.96766 -0.80009,-3.64277 -13.74987,-16.14125 -15.87798,-15.32462 -1.09105,0.41868 -2.12645,-0.40011 -3.34284,-2.64348 -0.96921,-1.78752 -2.93899,-4.64606 -4.37728,-6.35231 -1.43829,-1.70625 -2.91228,-4.05542 -3.27553,-5.22039 -0.36325,-1.16496 -1.54896,-2.9222 -2.63492,-3.90498 -1.08596,-0.98278 -1.97447,-2.81476 -1.97447,-4.07107 0,-1.2563 -1.8,-4.36393 -4,-6.90583 l -4,-4.62164 0,-17.86775 c 0,-22.51701 -0.81237,-23.90274 -9.88486,-16.86152 -1.31167,1.018 -3.6656,1.85091 -5.23095,1.85091 -2.3013,0 -2.95414,-0.52639 -3.4106,-2.75 -0.31049,-1.5125 -0.99406,-4.37721 -1.51906,-6.36602 -1.36316,-5.164 -1.18179,-8.45049 0.54547,-9.88398 0.825,-0.68469 1.5,-2.53064 1.5,-4.10212 0,-2.33923 0.7705,-3.26816 4.25,-5.12388 2.3375,-1.24665 5.36294,-2.49563 6.72321,-2.7755 2.01585,-0.41476 2.61076,-1.31462 3.21704,-4.86608 1.08647,-6.3643 5.04646,-11.13242 9.24563,-11.13242 2.45289,0 3.76704,0.66076 4.97216,2.5 0.90094,1.375 2.51186,2.5 3.57983,2.5 3.24578,0 4.07779,3.06567 3.02748,11.15525 -0.52448,4.03961 -0.96749,10.10215 -0.98447,13.47231 -0.0213,4.21659 -0.50213,6.51866 -1.54197,7.38164 -1.31512,1.09145 -1.32326,1.39914 -0.0628,2.37245 0.79658,0.61509 2.40135,4.26835 3.56617,8.11835 2.36223,7.8077 2.39328,7.87068 6.30976,12.79918 1.54113,1.93937 4.42087,7.50293 6.39942,12.36347 4.00642,9.84227 5.96163,12.96975 8.54851,13.67381 1.10253,0.30008 1.75,1.4497 1.75,3.10722 0,1.8053 1.41857,4.00962 4.52036,7.02421 3.85088,3.74263 5.3254,4.49387 9.95608,5.07243 l 5.43572,0.67915 1.78196,5.14027 c 2.44401,7.05004 3.12354,17.44155 1.57859,24.14026 -1.9244,8.34392 -4.51963,10.04535 -11.27271,7.39034 z m 23,-16.83132 c 0,-0.58246 0.45,-1.05902 1,-1.05902 0.55,0 1,0.19844 1,0.44098 0,0.24254 -0.45,0.7191 -1,1.05902 -0.55,0.33992 -1,0.14148 -1,-0.44098 z m -203.39301,-32.64081 c -1.10039,-2.86757 -0.63256,-8.1521 0.82909,-9.36516 2.23573,-1.85549 5.56392,0.39342 5.56392,3.75963 0,5.15131 -4.91393,9.45995 -6.39301,5.60553 z m -91.99566,-9.23807 c -0.6147,-0.99461 1.57471,-8.72178 2.79479,-9.86377 0.49352,-0.46193 0.59375,1.00264 0.23087,3.37327 -0.37416,2.44431 -0.22384,4.44767 0.36084,4.80902 0.5512,0.34066 1.00217,1.04282 1.00217,1.56036 0,1.15513 -3.68673,1.25688 -4.38867,0.12112 z m -19.61133,-2.18014 c -2.31168,-2.31168 -2.37809,-3.0494 -0.91825,-10.20078 1.26477,-6.19579 3.77785,-8.79922 8.49385,-8.79922 4.76257,0 5.95589,2.5912 4.29315,9.32231 -2.64117,10.69203 -7.16539,14.38105 -11.86875,9.67769 z m -98.77083,-4.1875 c 0.21771,-0.65313 0.93051,-1.36573 1.58401,-1.58356 0.73075,-0.24358 0.95424,0.21359 0.58051,1.1875 -0.69752,1.81771 -2.76448,2.19592 -2.16452,0.39606 z m -99.20742,-3.01953 c -2.6058,-2.797 -3.53437,-6.59999 -4.95493,-20.29297 -1.25289,-12.07691 -2.85049,-19.5 -4.19678,-19.5 -0.47852,0 -0.87004,-6.075 -0.87004,-13.5 0,-8.33333 0.38272,-13.5 1,-13.5 0.55,0 1,-1.19795 1,-2.66211 0,-1.46416 0.65038,-4.95166 1.44529,-7.74999 0.79492,-2.79834 2.41696,-8.96246 3.60455,-13.69804 2.8804,-11.48579 3.1567,-11.87086 6.65205,-9.27074 1.7855,1.3282 2.98541,3.31179 3.31567,5.48117 0.55813,3.66625 3.91018,10.89971 5.05102,10.89971 0.38399,0 0.93351,-0.9 1.22117,-2 0.52015,-1.98906 2.71025,-2.84974 2.71025,-1.0651 0,0.5142 0.4819,2.2017 1.07088,3.75 l 1.07088,2.8151 2.75378,-3.37304 c 2.1739,-2.66275 3.21746,-3.22586 4.95576,-2.67415 3.64041,1.15542 5.54145,5.22055 5.81712,12.43916 0.1388,3.63442 0.55179,8.10817 0.91775,9.94168 0.41125,2.06042 -0.005,5.81101 -1.09039,9.82001 -1.30517,4.8217 -1.46577,6.77635 -0.62578,7.61634 0.6215,0.6215 1.13,2.77026 1.13,4.77501 0,3.99084 2.39333,6.96685 5.57874,6.93696 1.88774,-0.0177 6.93922,-5.30715 9.29415,-9.73197 2.6354,-4.9518 8.27624,-1.75434 9.73021,5.51548 0.96313,4.81567 -0.20897,7.82863 -3.59038,9.22925 -3.43406,1.42243 -3.77449,2.47361 -1.26272,3.89896 1.55616,0.88308 1.58385,1.16064 0.25,2.50586 -0.825,0.83203 -3.33694,2.54501 -5.58209,3.80662 -2.24515,1.2616 -5.99179,3.73215 -8.32586,5.49009 -2.33407,1.75794 -6.34712,3.93865 -8.9179,4.84601 -6.4863,2.28935 -9.50128,3.82517 -18.17415,9.25785 -4.47195,2.80123 -8.3642,2.7987 -10.97825,-0.007 z m 212.97825,-3.35199 c 0,-0.85746 0.45,-1.2809 1,-0.94098 0.55,0.33992 1,1.04148 1,1.55902 0,0.51754 -0.45,0.94098 -1,0.94098 -0.55,0 -1,-0.70156 -1,-1.55902 z m -106,-3.4334 c 0,-1.81893 1.97499,-5.00758 3.10161,-5.00758 1.79826,0 0.52958,5.45802 -1.35161,5.81477 -0.9625,0.18253 -1.75,-0.1807 -1.75,-0.80719 z m 363.07895,-3.42425 c -0.0434,-1.05416 0.19293,-1.64479 0.52522,-1.3125 0.33229,0.33229 0.36781,1.19479 0.0789,1.91667 -0.31922,0.79773 -0.55618,0.56078 -0.60416,-0.60417 z m -253.57895,-1.58333 c -0.33992,-0.55 -0.14148,-1 0.44098,-1 0.58246,0 1.05902,0.45 1.05902,1 0,0.55 -0.19844,1 -0.44098,1 -0.24254,0 -0.7191,-0.45 -1.05902,-1 z m -95.05406,-18.08748 c -0.6728,-1.0886 1.25902,-3.91252 2.6765,-3.91252 0.48266,0 0.87756,0.85186 0.87756,1.89301 0,2.10816 -2.58979,3.57975 -3.55406,2.01951 z m 6.55406,-10.8535 c 0,-0.51754 0.45,-1.2191 1,-1.55902 0.55,-0.33992 1,0.0835 1,0.94098 0,0.85746 -0.45,1.55902 -1,1.55902 -0.55,0 -1,-0.42344 -1,-0.94098 z m 5,-6.91685 c 0,-1.92722 2.27346,-3.53538 3.40223,-2.4066 1.09021,1.09021 0.62151,2.18136 -1.40223,3.26443 -1.67858,0.89835 -2,0.76049 -2,-0.85783 z m 17.5,-28.03096 c -1.65,-1.03473 -5.25,-4.21939 -8,-7.07704 -2.75,-2.85764 -6.6875,-6.06851 -8.75,-7.13526 -2.0625,-1.06676 -3.75,-2.57804 -3.75,-3.35841 0,-0.78037 1.75171,-3.4428 3.89269,-5.91651 2.14097,-2.4737 6.13377,-9.18916 8.87288,-14.92324 2.73911,-5.73407 5.58284,-10.79804 6.31941,-11.25327 0.73657,-0.45522 2.86447,-0.72496 4.72867,-0.59941 1.8642,0.12554 4.03208,-0.30507 4.81752,-0.95692 2.13403,-1.77109 6.36118,0.4345 6.39636,3.33742 0.0172,1.41906 1.32027,3.20958 3.47247,4.77143 2.01983,1.4658 3.45633,3.375 3.47247,4.61514 0.0151,1.16333 0.979,3.32474 2.1419,4.80314 1.48266,1.88489 1.947,3.52486 1.55417,5.48902 -0.63611,3.18054 0.77681,5.08754 3.78146,5.10379 1.80323,0.01 1.68887,0.29697 -0.95,2.38598 -1.65,1.30619 -7.56852,6.9262 -13.15227,12.48891 -5.58376,5.56271 -10.53376,10.11234 -11,10.11028 -0.46625,-0.002 -2.19773,-0.85033 -3.84773,-1.88505 z M -610.12321,361.1024 c -0.36954,-0.59792 -0.15871,-1.60031 0.46851,-2.22752 1.25604,-1.25605 4.15293,0.0174 4.85915,2.1361 0.4996,1.49879 -4.40583,1.58297 -5.32766,0.0914 z"
           style="fill:#4069e4" />
        <path
           style="fill:#4069e4;fill-opacity:1;fill-rule:nonzero;stroke:none"
           id="path4119"
           d="m -301.78321,622.01673 c -1.22926,0.99339 -2.2607,2.18065 -3.27854,3.38206 -0.81251,0.81836 -1.71047,1.55528 -2.61559,2.2693 -0.71574,0.68668 -1.52855,1.27618 -2.07051,2.11691 -0.47207,1.07451 -1.21635,1.99209 -1.86902,2.957 -0.61407,1.01742 -1.27485,2.00929 -1.97667,2.96784 -0.82965,1.07991 -1.86833,1.97702 -2.70304,3.05087 -0.76527,0.76976 -1.11295,1.81994 -1.68278,2.72437 -0.76494,1.10767 -1.55173,2.20697 -2.24047,3.36382 -0.49424,1.25754 -1.28171,2.33035 -2.01514,3.44798 -0.59318,1.09838 -1.36285,2.07094 -2.11525,3.05864 -0.71968,1.16304 -1.60433,2.20933 -2.44195,3.28708 -0.8548,1.10194 -1.65786,2.24699 -2.52693,3.3367 -0.72137,0.78108 -1.56103,1.43525 -2.31504,2.1811 -1.12672,1.04037 -2.29023,2.03808 -3.34636,3.15221 -1.28446,1.48756 -2.72602,2.82559 -4.27497,4.03175 -3.98406,3.11092 -8.48746,5.54948 -13.10309,7.57016 -0.9348,0.37087 -1.77026,0.82602 -2.76909,1.04059 0,0 8.35363,-6.44131 8.35363,-6.44131 l 0,0 c 0.90317,-0.34308 1.75625,-0.79776 2.65712,-1.14801 0.31823,-0.15379 3.56651,-1.89614 1.90605,-0.91646 -14.81248,8.73939 -9.64405,5.97967 -6.75545,3.76336 1.55988,-1.15388 3.09726,-2.36347 4.35507,-3.85388 0.99588,-1.15718 2.10245,-2.16298 3.18166,-3.22818 0.85107,-0.6272 1.55719,-1.44301 2.36464,-2.12466 1.07584,-0.81039 1.69321,-2.20508 2.63572,-3.18554 0.74504,-1.12625 1.6812,-2.1108 2.42722,-3.22834 0.60507,-1.08559 1.54394,-1.91677 2.15072,-3.00978 0.59874,-1.19448 1.57213,-2.11936 2.06527,-3.37716 0.48144,-1.30661 1.44172,-2.33125 2.13712,-3.53182 0.71515,-0.85854 1.06786,-1.85093 1.60185,-2.81632 0.90444,-0.85827 -0.25091,0.28448 0.68377,-0.82065 0.64844,-0.7667 1.47055,-1.39117 2.09218,-2.18573 0.76609,-0.89255 1.30567,-1.88621 2.02192,-2.81228 0.5016,-1.04614 1.30416,-1.87182 1.89249,-2.86923 0.34913,-1.06356 0.99799,-1.83854 1.90749,-2.48215 0.77148,-0.87036 1.78176,-1.51245 2.69309,-2.22851 1.09952,-1.08753 1.92503,-2.44612 3.16951,-3.38104 0,0 9.80337,-4.06069 9.80337,-4.06069 z"
           inkscape:connector-curvature="0" />
        <path
           style="fill:#ff8080;fill-opacity:1;stroke:#ff8080;stroke-width:2.14285707;stroke-miterlimit:4;stroke-dasharray:none"
           d="m -324.42948,666.68542 c -1.49461,-0.80955 -3.49478,-1.04362 -7.28315,-0.85231 l -5.22267,0.26373 5.22079,-5.36909 c 2.87143,-2.953 7.9869,-9.54766 11.36769,-14.65481 8.85809,-13.3813 11.63593,-17.18357 13.79421,-18.88127 l 1.91347,-1.50514 2.46523,3.4075 c 2.5455,3.51843 6.58906,11.36341 6.59006,12.78546 3.1e-4,0.44359 0.79222,2.53574 1.7598,4.64921 1.82092,3.97742 3.21561,12.04424 2.08235,12.04424 -0.35244,0 -1.05696,-0.66636 -1.56559,-1.48081 -0.9539,-1.52744 -6.04227,-4.19005 -8.06037,-4.21778 -0.65079,-0.009 -1.70114,1.22532 -2.44329,2.87111 -0.98393,2.18197 -1.57721,2.75736 -2.42991,2.35663 -0.62048,-0.2916 -2.73529,-0.54602 -4.69957,-0.56538 l -3.57143,-0.0352 -2.14286,4.01028 c -3.62056,6.77575 -4.15736,7.13296 -7.77476,5.17362 l 0,0 z"
           id="path4125"
           inkscape:connector-curvature="0" />
        <path
           style="fill:#ff8080;fill-opacity:1;stroke:#ff8080;stroke-width:3;stroke-miterlimit:4;stroke-dasharray:none"
           d="m -332.15691,686.94355 c -7.46886,-3.7845 -10.32234,-5.88575 -13.86675,-10.21124 -2.10811,-2.57268 -2.46925,-3.39977 -1.69372,-3.87907 0.55512,-0.34308 1.52801,-0.31894 2.22722,0.0553 2.25469,1.20668 3.43236,0.69759 4.86006,-2.10094 0.80752,-1.58287 2.11185,-2.95318 3.05023,-3.20454 3.01489,-0.80757 9.56455,-0.47047 12.8928,0.66359 4.24009,1.44474 5.20479,0.90914 8.55117,-4.74758 l 2.6454,-4.47179 4.58115,0.16608 c 4.54695,0.16484 4.59291,0.14706 6.15472,-2.38001 0.86546,-1.40034 1.72403,-2.54608 1.90793,-2.54608 0.93815,0 5.14115,2.52559 6.82791,4.1029 1.22904,1.14929 2.35736,1.62975 3.13055,1.33305 1.08534,-0.41648 1.17464,0.0699 0.87371,4.7591 -0.60647,9.45002 -7.24472,19.43521 -15.45777,23.25143 -3.47192,1.61324 -5.19384,1.91091 -12.25385,2.11837 l -8.21428,0.24138 -6.21648,-3.14991 z"
           id="path4127"
           inkscape:connector-curvature="0" />
        <path
           style="fill:#ff8080;fill-opacity:1;stroke:#ff8080;stroke-width:0.26785713;stroke-miterlimit:4;stroke-dasharray:none"
           d="m -344.7746,672.01057 -0.86744,-0.37049 1.00137,-0.5913 c 1.18337,-0.69878 2.58875,-1.6069 3.61399,-2.33528 0.40569,-0.28823 0.75526,-0.52405 0.77682,-0.52405 0.0216,0 -0.17065,0.27895 -0.42712,0.61988 -0.25648,0.34093 -0.7065,1.05383 -1.00004,1.58421 -0.32008,0.57835 -0.73202,1.17008 -1.02916,1.47834 -0.44088,0.45739 -0.53431,0.51374 -0.84822,0.51159 -0.21024,-10e-4 -0.70322,-0.15209 -1.2202,-0.3729 l 0,0 z"
           id="path4133"
           inkscape:connector-curvature="0" />
        <path
           style="fill:#ff8080;fill-opacity:1;stroke:#ff8080;stroke-width:0.03348214;stroke-miterlimit:4;stroke-dasharray:none"
           d="m -340.09818,668.09231 c 0.004,-0.0274 0.0102,-0.0636 0.0134,-0.0804 0.005,-0.0241 0.0558,-0.0687 0.24073,-0.20975 0.12918,-0.0985 0.23623,-0.17768 0.23788,-0.17587 0.002,0.002 -0.11007,0.11859 -0.24828,0.25953 l -0.2513,0.25626 0.008,-0.0498 z"
           id="path4135"
           inkscape:connector-curvature="0" />
        <path
           style="fill:#ff8080;fill-opacity:1;stroke:#ff8080;stroke-width:0.01171875;stroke-miterlimit:4;stroke-dasharray:none"
           d="m -340.14894,668.0869 -0.022,-0.0442 0.0356,-0.026 c 0.0195,-0.0143 0.0361,-0.0254 0.0368,-0.0247 7.1e-4,7.1e-4 -2.8e-4,0.005 -0.002,0.0106 -0.002,0.005 -0.008,0.0361 -0.0128,0.0689 -0.005,0.0328 -0.0102,0.0596 -0.0114,0.0596 -0.001,0 -0.012,-0.0199 -0.024,-0.0442 z"
           id="path4137"
           inkscape:connector-curvature="0" />
        <path
           style="fill:#ff8080;fill-opacity:1;stroke:#ff8080;stroke-width:0.01171875;stroke-miterlimit:4;stroke-dasharray:none"
           d="m -339.60152,667.62507 c -0.003,-0.004 -0.004,-0.007 -0.001,-0.009 0.0162,-0.0144 0.12766,-0.0983 0.12891,-0.0971 0.002,0.002 -0.11759,0.11227 -0.12083,0.11227 -8.9e-4,0 -0.004,-0.003 -0.007,-0.006 z"
           id="path4139"
           inkscape:connector-curvature="0" />
      </g>
      <text
         sodipodi:linespacing="125%"
         id="text4153"
         y="835.36218"
         x="371.71301"
         style="font-size:18px;font-style:normal;font-variant:normal;font-weight:normal;font-stretch:normal;line-height:125%;letter-spacing:0px;word-spacing:0px;fill:#4069e4;fill-opacity:1;stroke:none;font-family:Luxi Serif;-inkscape-font-specification:Luxi Serif"
         xml:space="preserve"><tspan
           style="font-size:64px;font-style:normal;font-variant:normal;font-weight:600;font-stretch:normal;text-align:center;text-anchor:middle;fill:#4069e4;fill-opacity:1;font-family:URW Gothic L;-inkscape-font-specification:URW Gothic L Semi-Bold"
           y="835.36218"
           x="371.71301"
           id="tspan4155"
           sodipodi:role="line">Guau! Baby Log</tspan></text>
    </g>
  </g>
</svg>
