<?xml version="1.0" encoding="UTF-8" standalone="no"?>
<!-- Created with Inkscape (http://www.inkscape.org/) -->

<svg
   xmlns:dc="http://purl.org/dc/elements/1.1/"
   xmlns:cc="http://creativecommons.org/ns#"
   xmlns:rdf="http://www.w3.org/1999/02/22-rdf-syntax-ns#"
   xmlns:svg="http://www.w3.org/2000/svg"
   xmlns="http://www.w3.org/2000/svg"
   xmlns:sodipodi="http://sodipodi.sourceforge.net/DTD/sodipodi-0.dtd"
   xmlns:inkscape="http://www.inkscape.org/namespaces/inkscape"
   id="svg3039"
   version="1.1"
   inkscape:version="0.48.1 r9760"
   width="268"
   height="380"
   sodipodi:docname="paws.jpg">
  <metadata
     id="metadata3045">
    <rdf:RDF>
      <cc:Work
         rdf:about="">
        <dc:format>image/svg+xml</dc:format>
        <dc:type
           rdf:resource="http://purl.org/dc/dcmitype/StillImage" />
        <dc:title></dc:title>
      </cc:Work>
    </rdf:RDF>
  </metadata>
  <defs
     id="defs3043" />
  <sodipodi:namedview
     pagecolor="#ffffff"
     bordercolor="#666666"
     borderopacity="1"
     objecttolerance="10"
     gridtolerance="10"
     guidetolerance="10"
     inkscape:pageopacity="0"
     inkscape:pageshadow="2"
     inkscape:window-width="1280"
     inkscape:window-height="958"
     id="namedview3041"
     showgrid="false"
     inkscape:zoom="1.4368421"
     inkscape:cx="205.6013"
     inkscape:cy="148.7049"
     inkscape:window-x="-2"
     inkscape:window-y="8"
     inkscape:window-maximized="1"
     inkscape:current-layer="svg3039" />
  <g
     id="g4699"
     transform="translate(-9.0476191,-3.4798535)">
    <g
       id="g4678">
      <path
         style="fill:#67a6e8;fill-opacity:1;stroke:none"
         d="m 239.59382,103.37004 c -2.90138,-3.26553 -3.3069,-3.898772 -3.5388,-5.526032 -0.13123,-0.9208 -0.71866,-2.40686 -1.30541,-3.30235 -0.74519,-1.1373 -0.9654,-2.6837 -0.73041,-5.12924 0.42049,-4.37616 1.95956,-6.07299 10.78928,-11.895278 5.62139,-3.706721 7.00642,-4.321381 9.80324,-4.350555 3.87659,-0.04044 7.91105,1.775511 9.65132,4.344151 1.88404,2.780842 1.69093,10.598382 -0.36676,14.847532 -1.87521,3.87231 -4.56955,6.05253 -11.61418,9.398012 -6.83764,3.24718 -10.79034,3.7499 -12.68828,1.61376 l 0,0 z"
         id="path4629"
         inkscape:connector-curvature="0" />
      <path
         style="fill:#67a6e8;fill-opacity:1;stroke:none"
         d="m 236.16465,70.019395 -4.30478,-2.036511 0.37633,-4.052684 c 0.54901,-5.912351 2.59678,-9.67865 8.30707,-15.278527 7.93152,-7.778159 14.99948,-10.387713 20.47123,-7.558162 2.67736,1.384518 3.60382,3.267707 3.57287,7.262509 -0.0456,5.885614 -3.52342,12.547542 -9.35805,17.925716 -6.71653,6.191075 -11.78018,7.183813 -19.06467,3.737659 l 0,0 z"
         id="path4633"
         inkscape:connector-curvature="0" />
      <path
         style="fill:#67a6e8;fill-opacity:1;stroke:none"
         d="m 214.71852,53.498808 c -2.97756,-1.573264 -4.5843,-3.106095 -5.35093,-5.104808 -0.99356,-2.590328 -0.74705,-12.136061 0.38326,-14.841273 2.03648,-4.873974 11.00645,-11.585631 15.50191,-11.599082 2.89487,-0.0087 10.24748,4.918059 12.56415,8.41879 2.17266,3.283108 1.87531,5.791443 -1.27552,10.759781 -5.84292,9.213343 -11.15929,13.545181 -16.56536,13.497655 -1.74328,-0.01532 -4.10916,-0.524304 -5.25751,-1.131063 z"
         id="path4635"
         inkscape:connector-curvature="0" />
      <path
         style="fill:#67a6e8;fill-opacity:1;stroke:none"
         d="m 178.72563,72.239587 c -2.6882,-1.667135 -3.57696,-4.345202 -3.16114,-9.525412 0.63075,-7.85784 5.50118,-14.899014 12.5882,-18.198739 3.52108,-1.639421 8.73712,-2.210911 11.27845,-1.235711 1.98689,0.762443 4.48595,7.097242 4.48859,11.378011 0.003,4.776443 -3.35762,11.787212 -7.10331,14.81885 -4.37476,3.540787 -14.37409,5.067982 -18.09079,2.763001 l 0,0 z"
         id="path4637"
         inkscape:connector-curvature="0" />
      <path
         style="fill:#67a6e8;fill-opacity:1;stroke:none"
         d="m 213.3465,109.95382 c -1.90296,-1.31603 -5.03483,-2.90129 -6.95971,-3.52279 -1.92488,-0.6215 -5.2654,-2.49589 -7.42339,-4.16531 -3.17064,-2.452812 -4.66698,-3.122682 -7.79719,-3.490582 -5.74322,-0.675 -6.98795,-2.12126 -6.54756,-7.60767 0.64229,-8.00148 5.15172,-13.923159 11.93575,-15.673735 1.56902,-0.404874 5.98463,-2.315622 9.81247,-4.246105 6.1117,-3.082296 7.35893,-3.471618 10.23623,-3.195207 3.76945,0.362118 7.60944,2.918162 9.30244,6.192062 0.61323,1.185875 1.3256,5.105715 1.62106,8.920045 0.45213,5.83691 0.84837,7.37381 2.78653,10.80804 l 2.25946,4.00353 -1.51489,4.050782 c -1.72664,4.61698 -4.17982,8.23126 -6.43903,9.48664 -3.00346,1.66894 -7.50409,1.0462 -11.27217,-1.5597 z"
         id="path4639"
         inkscape:connector-curvature="0" />
    </g>
    <g
       id="g4671">
      <path
         style="fill:#67a6e8;fill-opacity:1;stroke:none"
         d="m 119.93755,97.162248 -4.30478,-2.03651 0.37632,-4.05268 c 0.54901,-5.91235 2.59678,-9.67865 8.30707,-15.278528 7.93152,-7.778159 14.99948,-10.387713 20.47123,-7.558162 2.67736,1.384518 3.60382,3.267707 3.57288,7.262509 -0.0456,5.885611 -3.52343,12.547541 -9.35806,17.925721 -6.71652,6.19107 -11.78018,7.183812 -19.06466,3.73765 l 0,0 z"
         id="path4641"
         inkscape:connector-curvature="0" />
      <path
         style="fill:#67a6e8;fill-opacity:1;stroke:none"
         d="m 123.07455,129.36692 c -2.47665,-2.63147 -4.74798,-8.59391 -4.74798,-12.46388 0,-2.74803 0.35633,-3.48059 2.95788,-6.08099 4.04081,-4.03903 13.11802,-9.58257 16.41496,-10.02479 4.03885,-0.54172 8.91855,1.82587 10.22942,4.96323 2.26164,5.41286 0.6128,13.10736 -3.70327,17.28173 -3.36642,3.2559 -11.81602,7.44279 -15.99312,7.92481 -2.96389,0.34203 -3.48099,0.1816 -5.15789,-1.60011 z"
         id="path4643"
         inkscape:connector-curvature="0" />
      <path
         style="fill:#67a6e8;fill-opacity:1;stroke:none"
         d="m 97.119393,137.09668 c -1.90296,-1.31604 -5.03483,-2.90129 -6.9597,-3.52279 -1.92488,-0.6215 -5.26541,-2.49589 -7.4234,-4.16531 -3.17064,-2.45282 -4.66698,-3.12268 -7.79719,-3.49058 -5.74322,-0.675 -6.98795,-2.12127 -6.54755,-7.60768 0.64228,-8.00148 5.15171,-13.92315 11.93575,-15.67373 1.56901,-0.40487 5.98462,-2.31562 9.81246,-4.246102 6.1117,-3.0823 7.35894,-3.47162 10.236227,-3.19521 3.76945,0.36212 7.60944,2.91816 9.30244,6.192062 0.61324,1.18588 1.3256,5.10572 1.62106,8.92004 0.45213,5.83691 0.84838,7.37382 2.78654,10.80805 l 2.25945,4.00353 -1.51489,4.05078 c -1.72664,4.61698 -4.17982,8.23126 -6.43902,9.48664 -3.00346,1.66894 -7.5041,1.04619 -11.272177,-1.5597 z"
         id="path4645"
         inkscape:connector-curvature="0" />
      <path
         style="fill:#67a6e8;fill-opacity:1;stroke:none"
         d="m 62.498523,99.382448 c -2.6882,-1.66714 -3.57695,-4.34521 -3.16113,-9.52542 0.63075,-7.85784 5.50118,-14.89901 12.58819,-18.198735 3.52109,-1.639421 8.73712,-2.21091 11.27845,-1.235711 1.9869,0.762443 4.48596,7.097243 4.48859,11.378016 0.003,4.77644 -3.35761,11.78721 -7.1033,14.81885 -4.37476,3.540782 -14.3741,5.067982 -18.0908,2.763 l 0,0 z"
         id="path4647"
         inkscape:connector-curvature="0" />
      <path
         style="fill:#67a6e8;fill-opacity:1;stroke:none"
         d="m 98.491413,80.641668 c -2.97756,-1.57327 -4.58429,-3.106098 -5.35093,-5.104811 -0.99355,-2.590328 -0.74704,-12.136061 0.38327,-14.841273 2.03647,-4.873974 11.006447,-11.58563 15.501897,-11.599082 2.89487,-0.0087 10.24748,4.918059 12.56416,8.41879 2.17266,3.283109 1.87531,5.791443 -1.27552,10.759781 -5.84293,9.213343 -11.1593,13.545185 -16.56537,13.497655 -1.74328,-0.0153 -4.109157,-0.5243 -5.257507,-1.13106 z"
         id="path4649"
         inkscape:connector-curvature="0" />
    </g>
    <g
       id="g4685">
      <path
         style="fill:#67a6e8;fill-opacity:1;stroke:none"
         d="m 181.26113,261.0308 c -4.75278,-2.36841 -5.86588,-4.50697 -5.86108,-11.26066 0.005,-7.42724 0.92437,-10.25311 4.49658,-13.82531 3.77248,-3.77249 9.81459,-7.27933 12.55663,-7.28789 2.57218,-0.008 10.13645,4.78595 12.44254,7.88564 3.54144,4.76019 2.96851,7.53665 -3.306,16.02105 -7.18884,9.72076 -12.97597,12.13118 -20.32867,8.46717 z"
         id="path4651"
         inkscape:connector-curvature="0" />
      <path
         style="fill:#67a6e8;fill-opacity:1;stroke:none"
         d="m 203.32396,277.9064 -4.43485,-2.13233 0.32129,-5.00632 c 0.27806,-4.33274 0.67031,-5.53216 2.91539,-8.91451 5.58152,-8.40891 15.01113,-15.11011 21.25502,-15.10499 3.76415,0.003 7.42795,1.99349 8.40634,4.56684 4.08054,10.73265 -9.90916,29.0812 -21.94043,28.77652 -1.14835,-0.0291 -4.08359,-1.01243 -6.52276,-2.18521 z"
         id="path4653"
         inkscape:connector-curvature="0" />
      <path
         style="fill:#67a6e8;fill-opacity:1;stroke:none"
         d="m 206.88319,310.7693 c -2.90137,-3.26552 -3.30689,-3.89876 -3.5388,-5.52603 -0.13122,-0.92079 -0.71865,-2.40685 -1.3054,-3.30234 -0.74519,-1.1373 -0.9654,-2.6837 -0.73041,-5.12925 0.42049,-4.37615 1.95955,-6.07298 10.78928,-11.89527 5.62138,-3.70672 7.00642,-4.32138 9.80324,-4.35056 3.87659,-0.0404 7.91104,1.77552 9.65131,4.34416 1.88404,2.78084 1.69094,10.59838 -0.36675,14.84752 -1.87521,3.87232 -4.56955,6.05254 -11.61418,9.39801 -6.83764,3.24719 -10.79035,3.74991 -12.68829,1.61376 l 0,0 z"
         id="path4655"
         inkscape:connector-curvature="0" />
      <path
         style="fill:#67a6e8;fill-opacity:1;stroke:none"
         d="m 180.65076,317.76479 c -1.89558,-1.64061 -4.23367,-2.9442 -5.78409,-3.22489 -3.59563,-0.65094 -6.27204,-2.09647 -9.72052,-5.25005 -2.49813,-2.28451 -3.41253,-2.69072 -6.05699,-2.69072 -6.20483,0 -8.53047,-2.46861 -7.83754,-8.31935 0.484,-4.08658 2.67655,-9.392 4.86536,-11.77295 1.87551,-2.04015 6.46429,-4.23073 8.90572,-4.25139 0.99331,-0.008 3.6554,-1.20348 5.91575,-2.65572 8.81741,-5.66505 14.53511,-6.18067 19.76243,-1.78217 3.06536,2.57933 4.22438,5.25955 4.2488,9.8253 0.0418,7.82057 0.65188,10.52715 3.09384,13.72629 2.1125,2.76753 2.26083,3.26727 1.63861,5.52077 -0.37629,1.36278 -1.22371,3.65568 -1.88317,5.09534 -2.96641,6.47589 -5.58054,8.53329 -10.84238,8.53329 -2.63902,0 -3.61813,-0.42757 -6.30582,-2.75375 z"
         id="path4657"
         inkscape:connector-curvature="0" />
      <path
         style="fill:#67a6e8;fill-opacity:1;stroke:none"
         d="m 145.99535,280.36311 c -2.94854,-1.89026 -4.24307,-5.29366 -3.81388,-10.02691 0.98942,-10.91151 9.19205,-19.70521 19.2297,-20.61539 5.21796,-0.47315 6.73828,0.40553 8.91027,5.14978 2.25848,4.93317 2.01075,10.0302 -0.75518,15.53806 -3.75881,7.48498 -7.57014,9.83489 -17.48511,10.78061 -3.28784,0.31361 -4.58197,0.13793 -6.0858,-0.82615 z"
         id="path4659"
         inkscape:connector-curvature="0" />
    </g>
    <g
       id="g4692">
      <path
         style="fill:#67a6e8;fill-opacity:1;stroke:none"
         d="m 62.946113,309.05278 c -4.75278,-2.36841 -5.86588,-4.50697 -5.86107,-11.26067 0.005,-7.42724 0.92437,-10.2531 4.49657,-13.8253 3.77248,-3.77249 9.81459,-7.27934 12.55663,-7.28789 2.57218,-0.008 10.13646,4.78595 12.44254,7.88564 3.54144,4.76019 2.96851,7.53665 -3.306,16.02104 -7.18884,9.72077 -12.97596,12.13118 -20.32867,8.46718 z"
         id="path4661"
         inkscape:connector-curvature="0" />
      <path
         style="fill:#67a6e8;fill-opacity:1;stroke:none"
         d="m 27.680333,328.38509 c -2.94854,-1.89026 -4.24307,-5.29366 -3.81387,-10.02691 0.98942,-10.91151 9.19204,-19.70521 19.22969,-20.6154 5.21796,-0.47314 6.73828,0.40554 8.91027,5.14979 2.25848,4.93317 2.01075,10.0302 -0.75518,15.53806 -3.75881,7.48498 -7.57014,9.83489 -17.4851,10.78061 -3.28785,0.3136 -4.58198,0.13792 -6.08581,-0.82615 z"
         id="path4663"
         inkscape:connector-curvature="0" />
      <path
         style="fill:#67a6e8;fill-opacity:1;stroke:none"
         d="m 62.335743,365.78677 c -1.89557,-1.64061 -4.23367,-2.94421 -5.78409,-3.22489 -3.59563,-0.65094 -6.27204,-2.09647 -9.72051,-5.25006 -2.49814,-2.2845 -3.41254,-2.69071 -6.057,-2.69071 -6.20482,0 -8.53047,-2.46861 -7.83753,-8.31935 0.48399,-4.08658 2.67654,-9.392 4.86535,-11.77295 1.87551,-2.04015 6.46429,-4.23073 8.90573,-4.25139 0.99331,-0.008 3.65539,-1.20348 5.91575,-2.65573 8.8174,-5.66504 14.5351,-6.18066 19.76242,-1.78216 3.06536,2.57933 4.22438,5.25955 4.2488,9.8253 0.0418,7.82057 0.65188,10.52715 3.09384,13.72629 2.1125,2.76753 2.26083,3.26727 1.63861,5.52077 -0.37628,1.36278 -1.22371,3.65568 -1.88317,5.09533 -2.96641,6.47589 -5.58054,8.5333 -10.84238,8.5333 -2.63902,0 -3.61813,-0.42757 -6.30582,-2.75375 z"
         id="path4665"
         inkscape:connector-curvature="0" />
      <path
         style="fill:#67a6e8;fill-opacity:1;stroke:none"
         d="m 85.008943,325.92838 -4.43485,-2.13233 0.32129,-5.00632 c 0.27806,-4.33274 0.67032,-5.53217 2.91539,-8.91451 5.58152,-8.40892 15.01113,-15.11012 21.255017,-15.10499 3.76415,0.003 7.42795,1.99349 8.40634,4.56684 4.08055,10.73265 -9.90915,29.0812 -21.940427,28.77651 -1.14835,-0.0291 -4.08359,-1.01242 -6.52276,-2.1852 z"
         id="path4667"
         inkscape:connector-curvature="0" />
      <path
         style="fill:#67a6e8;fill-opacity:1;stroke:none"
         d="m 88.568183,358.79128 c -2.90138,-3.26552 -3.3069,-3.89877 -3.5388,-5.52603 -0.13123,-0.9208 -0.71866,-2.40685 -1.30541,-3.30235 -0.74519,-1.1373 -0.9654,-2.68369 -0.73041,-5.12924 0.42049,-4.37616 1.95956,-6.07299 10.78928,-11.89527 5.62139,-3.70672 7.006417,-4.32138 9.803237,-4.35056 3.87659,-0.0404 7.91104,1.77551 9.65131,4.34415 1.88404,2.78085 1.69094,10.59839 -0.36675,14.84753 -1.87521,3.87231 -4.56955,6.05254 -11.61418,9.39801 -6.837637,3.24719 -10.790347,3.74991 -12.688277,1.61376 l 0,0 z"
         id="path4669"
         inkscape:connector-curvature="0" />
    </g>
  </g>
</svg>
